<svg width="48" height="48" viewBox="0 0 48 48" fill="none" xmlns="http://www.w3.org/2000/svg">
<g clip-path="url(#clip0_141_2)">
<path d="M44 0H4C1.79086 0 0 1.79086 0 4V44C0 46.2091 1.79086 48 4 48H44C46.2091 48 48 46.2091 48 44V4C48 1.79086 46.2091 0 44 0Z" fill="#1E45B8" fill-opacity="0.08"/>
<path d="M16 32C15.45 32 14.9792 31.8042 14.5875 31.4125C14.1958 31.0208 14 30.55 14 30V27H16V30H32V18H16V21H14V18C14 17.45 14.1958 16.9792 14.5875 16.5875C14.9792 16.1958 15.45 16 16 16H32C32.55 16 33.0208 16.1958 33.4125 16.5875C33.8042 16.9792 34 17.45 34 18V30C34 30.55 33.8042 31.0208 33.4125 31.4125C33.0208 31.8042 32.55 32 32 32H16ZM23.5 28.5L22.1 27.05L24.175 25H14V23H24.175L22.1 20.95L23.5 19.5L28 24L23.5 28.5Z" fill="#1E45B8"/>
</g>
<defs>
<clipPath id="clip0_141_2">
<rect width="48" height="48" fill="white"/>
</clipPath>
</defs>
</svg>
