<svg width="44" height="44" viewBox="0 0 44 44" fill="none" xmlns="http://www.w3.org/2000/svg">
<rect width="44" height="44" rx="6" fill="#FFEEE5"/>
<g clip-path="url(#clip0_526_29064)">
<path d="M23.4046 9.99132C23.441 9.99111 23.4774 9.9909 23.5139 9.99068C23.5901 9.99029 23.6663 9.99011 23.7425 9.99004C23.8197 9.98994 23.8969 9.98946 23.9741 9.9886C24.7922 9.97969 24.7922 9.97969 25.1876 10.1172C25.2257 10.1296 25.2639 10.142 25.302 10.1544C25.7336 10.2968 26.143 10.5164 26.5001 10.7969C26.5305 10.8196 26.5305 10.8196 26.5615 10.8427C26.9078 11.1104 27.2234 11.437 27.4611 11.8047C27.4749 11.8259 27.4749 11.8259 27.489 11.8475C27.8764 12.4476 28.1459 13.1744 28.1439 13.8951C28.1439 13.9127 28.1439 13.9302 28.1439 13.9483C28.1439 13.9851 28.1439 14.0219 28.1438 14.0588C28.1437 14.1147 28.1438 14.1706 28.1439 14.2266C28.1439 14.2626 28.1439 14.2986 28.1439 14.3346C28.1439 14.3511 28.1439 14.3676 28.144 14.3846C28.1435 14.4881 28.134 14.5857 28.1173 14.6875C28.1297 14.6839 28.1421 14.6803 28.1548 14.6766C29.1049 14.4646 30.2265 14.8121 31.0317 15.311C31.9857 15.9215 32.6749 16.8892 32.9279 17.9922C33.1208 18.892 33.0139 19.8334 32.6173 20.6641C32.6052 20.6895 32.6052 20.6895 32.5929 20.7155C32.499 20.9096 32.3918 21.092 32.2687 21.2691C32.253 21.2917 32.253 21.2917 32.2371 21.3148C32.0461 21.5807 31.803 21.8101 31.5719 22.0408C31.5443 22.0683 31.5167 22.0959 31.4892 22.1235C31.432 22.1808 31.3747 22.238 31.3174 22.2951C31.2445 22.368 31.1716 22.4409 31.0988 22.5139C31.0421 22.5706 30.9854 22.6274 30.9286 22.684C30.9017 22.7109 30.8749 22.7378 30.848 22.7647C30.7221 22.8908 30.596 23.0148 30.4605 23.1307C30.3617 23.2185 30.2699 23.3138 30.1769 23.4077C30.1545 23.4302 30.1321 23.4527 30.1097 23.4752C30.0392 23.5459 29.9689 23.6167 29.8986 23.6875C29.8169 23.7697 29.7353 23.8519 29.6535 23.9339C29.6211 23.9664 29.5889 23.999 29.5566 24.0315C29.4551 24.1334 29.3522 24.2311 29.2432 24.3247C29.1457 24.4114 29.055 24.5053 28.9633 24.5979C28.9301 24.6312 28.897 24.6644 28.8639 24.6976C28.8064 24.7554 28.749 24.8133 28.6915 24.8711C28.6229 24.9402 28.5542 25.0094 28.4854 25.0784C28.4428 25.1212 28.4002 25.1641 28.3577 25.207C28.272 25.293 28.1863 25.3776 28.0942 25.4567C27.9778 25.5568 27.8708 25.6659 27.7628 25.7749C27.7404 25.7974 27.718 25.8199 27.6956 25.8424C27.6252 25.9131 27.5548 25.9839 27.4845 26.0547C27.4029 26.1369 27.3212 26.219 27.2394 26.3011C27.2071 26.3336 27.1748 26.3662 27.1425 26.3987C27.0411 26.5006 26.9382 26.5983 26.8291 26.6919C26.7317 26.7786 26.641 26.8724 26.5492 26.9651C26.5161 26.9983 26.483 27.0316 26.4499 27.0648C26.3924 27.1226 26.3349 27.1804 26.2775 27.2383C26.2088 27.3074 26.1401 27.3766 26.0714 27.4456C26.0287 27.4884 25.9862 27.5312 25.9436 27.5742C25.858 27.6602 25.7723 27.7448 25.6801 27.8239C25.5637 27.924 25.4567 28.0331 25.3488 28.1421C25.3264 28.1646 25.304 28.1871 25.2815 28.2096C25.2111 28.2803 25.1408 28.3511 25.0704 28.4219C24.9888 28.5041 24.9071 28.5862 24.8254 28.6683C24.793 28.7008 24.7607 28.7333 24.7285 28.7659C24.627 28.8678 24.5241 28.9654 24.4151 29.0591C24.3176 29.1458 24.2269 29.2396 24.1351 29.3323C24.102 29.3655 24.0689 29.3988 24.0358 29.432C23.9783 29.4898 23.9208 29.5476 23.8634 29.6055C23.7947 29.6746 23.7261 29.7437 23.6573 29.8128C23.6147 29.8556 23.5721 29.8984 23.5296 29.9414C23.4272 30.0441 23.3237 30.1434 23.2127 30.237C23.1117 30.3275 23.0139 30.422 23.0006 30.5606C23.0196 30.788 23.2557 30.9551 23.4191 31.0946C23.5384 31.1989 23.6494 31.3109 23.7609 31.4234C23.7833 31.4459 23.8057 31.4684 23.8281 31.4908C23.9104 31.5735 23.9926 31.6562 24.0748 31.739C24.1446 31.8092 24.2144 31.8794 24.2843 31.9495C24.3166 31.982 24.3489 32.0146 24.3811 32.0472C24.4848 32.1512 24.5896 32.2522 24.7013 32.3477C24.9102 32.527 25.0773 32.7357 25.0997 33.0193C25.1084 33.2695 25.0607 33.48 24.9009 33.677C24.7218 33.8577 24.4892 33.9539 24.2369 33.9605C23.7786 33.9548 23.5157 33.6233 23.2174 33.3203C23.1673 33.2696 23.1172 33.2189 23.067 33.1682C23.0359 33.1369 23.0049 33.1055 22.974 33.0741C22.9026 33.0019 22.8302 32.9325 22.7533 32.8661C22.5713 32.709 22.4037 32.5358 22.2332 32.3663C22.1884 32.3218 22.1434 32.2774 22.0982 32.2332C21.6345 31.7786 21.2574 31.3094 21.2445 30.6274C21.2417 29.9378 21.547 29.4635 22.0159 28.9893C22.0935 28.9112 22.1713 28.8334 22.2492 28.7557C22.3094 28.6956 22.3695 28.6354 22.4296 28.5751C22.4684 28.5363 22.5072 28.4976 22.546 28.4588C22.5638 28.441 22.5815 28.4233 22.5997 28.405C22.6784 28.3267 22.7576 28.2503 22.8418 28.178C22.9587 28.0772 23.0663 27.9675 23.1749 27.8579C23.1973 27.8354 23.2197 27.8129 23.2421 27.7904C23.3126 27.7197 23.3829 27.649 23.4532 27.5781C23.5349 27.496 23.6165 27.4138 23.6983 27.3318C23.7307 27.2993 23.7629 27.2667 23.7952 27.2341C23.8966 27.1324 23.9994 27.0348 24.1083 26.9413C24.2076 26.8528 24.3001 26.7571 24.3937 26.6626C24.4161 26.6401 24.4385 26.6176 24.4609 26.5951C24.5313 26.5244 24.6017 26.4536 24.672 26.3828C24.7536 26.3006 24.8353 26.2185 24.9171 26.1364C24.9494 26.104 24.9817 26.0714 25.014 26.0388C25.1153 25.9371 25.2181 25.8395 25.327 25.7459C25.4264 25.6575 25.5188 25.5618 25.6124 25.4673C25.6348 25.4448 25.6572 25.4223 25.6796 25.3998C25.7501 25.3291 25.8204 25.2583 25.8907 25.1875C25.9724 25.1053 26.054 25.0232 26.1358 24.9411C26.1682 24.9086 26.2004 24.8761 26.2327 24.8435C26.3342 24.7416 26.4371 24.644 26.5461 24.5503C26.6436 24.4636 26.7343 24.3698 26.826 24.2771C26.8591 24.2439 26.8923 24.2106 26.9254 24.1774C26.9829 24.1196 27.0403 24.0618 27.0978 24.0039C27.1664 23.9348 27.2351 23.8657 27.3039 23.7966C27.3465 23.7538 27.3891 23.711 27.4316 23.6681C27.5173 23.582 27.603 23.4974 27.6951 23.4183C27.8115 23.3183 27.9185 23.2091 28.0265 23.1001C28.0489 23.0776 28.0713 23.0551 28.0937 23.0326C28.1641 22.9619 28.2345 22.8911 28.3048 22.8203C28.3864 22.7381 28.4681 22.656 28.5499 22.5739C28.5822 22.5415 28.6145 22.5089 28.6468 22.4763C28.7481 22.3746 28.8509 22.277 28.9599 22.1834C29.0592 22.095 29.1516 21.9993 29.2452 21.9048C29.2676 21.8823 29.29 21.8598 29.3124 21.8373C29.3829 21.7666 29.4532 21.6958 29.5236 21.625C29.6052 21.5428 29.6869 21.4607 29.7686 21.3786C29.801 21.3461 29.8332 21.3136 29.8655 21.281C29.9696 21.1766 30.075 21.0757 30.1868 20.9797C30.6483 20.5817 31.0266 20.1104 31.1876 19.5156C31.1951 19.4891 31.2025 19.4626 31.2102 19.4353C31.3655 18.7926 31.229 18.1162 30.8892 17.5568C30.7997 17.417 30.69 17.2942 30.5782 17.1719C30.5629 17.1546 30.5475 17.1373 30.5316 17.1194C30.1388 16.6997 29.5282 16.4063 28.9549 16.3702C28.8729 16.3679 28.7911 16.3673 28.7091 16.3677C28.6801 16.3678 28.651 16.368 28.6211 16.3681C28.413 16.3709 28.2238 16.385 28.0236 16.4453C28.0081 16.4499 27.9926 16.4544 27.9767 16.4591C27.2413 16.6795 26.7495 17.2233 26.2233 17.7534C26.1382 17.8391 26.0531 17.9247 25.9679 18.0102C25.9488 18.0295 25.9297 18.0488 25.9101 18.0687C25.828 18.1511 25.7458 18.2317 25.6576 18.3074C25.5409 18.4078 25.4336 18.5172 25.3253 18.6265C25.3029 18.649 25.2805 18.6715 25.2581 18.694C25.1877 18.7647 25.1173 18.8355 25.047 18.9063C24.9654 18.9885 24.8837 19.0706 24.8019 19.1527C24.7696 19.1851 24.7373 19.2177 24.705 19.2503C24.6037 19.352 24.5009 19.4496 24.3919 19.5431C24.2926 19.6316 24.2002 19.7273 24.1066 19.8218C24.0842 19.8443 24.0618 19.8668 24.0394 19.8893C23.9689 19.96 23.8986 20.0308 23.8282 20.1016C23.7466 20.1838 23.6649 20.2659 23.5832 20.348C23.5508 20.3805 23.5186 20.413 23.4863 20.4456C23.3849 20.5473 23.2821 20.6449 23.1732 20.7385C23.0738 20.8269 22.9814 20.9226 22.8878 21.0171C22.8654 21.0396 22.843 21.0621 22.8206 21.0846C22.7502 21.1553 22.6798 21.2261 22.6095 21.2969C22.5279 21.3791 22.4462 21.4612 22.3644 21.5433C22.3321 21.5758 22.2998 21.6083 22.2675 21.6409C22.1662 21.7427 22.0634 21.8402 21.9544 21.9338C21.8551 22.0222 21.7627 22.118 21.6691 22.2124C21.6467 22.2349 21.6243 22.2574 21.6019 22.2799C21.5314 22.3506 21.4611 22.4214 21.3907 22.4922C21.3091 22.5744 21.2274 22.6565 21.1457 22.7386C21.1133 22.7711 21.0811 22.8037 21.0488 22.8362C20.9618 22.9236 20.8749 23.0096 20.7813 23.0899C20.6652 23.1895 20.5592 23.2988 20.452 23.4077C20.4297 23.4302 20.4074 23.4527 20.3851 23.4752C20.2914 23.5697 20.1977 23.6643 20.1043 23.7592C20.0468 23.8176 19.9892 23.8758 19.9314 23.9339C19.8992 23.9663 19.8673 23.9989 19.8353 24.0315C19.6214 24.2463 19.3974 24.4424 19.0823 24.4497C19.0648 24.4495 19.0474 24.4494 19.0294 24.4492C19.011 24.4491 18.9927 24.449 18.9737 24.4488C18.7445 24.4419 18.5514 24.3631 18.3849 24.2035C18.2121 24.0045 18.1445 23.8023 18.1506 23.5421C18.1817 23.1892 18.4188 22.9694 18.658 22.734C18.7041 22.6886 18.75 22.643 18.7958 22.5973C18.8255 22.5678 18.8552 22.5383 18.8849 22.5089C18.8984 22.4955 18.9119 22.4821 18.9257 22.4684C18.994 22.4013 19.0634 22.3368 19.136 22.2745C19.2536 22.1725 19.3623 22.0622 19.4718 21.9517C19.4942 21.9292 19.5166 21.9067 19.539 21.8842C19.6094 21.8135 19.6798 21.7427 19.7501 21.6719C19.8317 21.5897 19.9134 21.5076 19.9952 21.4255C20.0275 21.393 20.0598 21.3604 20.0921 21.3279C20.1934 21.2261 20.2962 21.1286 20.4052 21.035C20.5045 20.9466 20.597 20.8508 20.6905 20.7564C20.7129 20.7339 20.7353 20.7114 20.7578 20.6889C20.8282 20.6182 20.8985 20.5474 20.9689 20.4766C21.0505 20.3944 21.1322 20.3122 21.2139 20.2302C21.2463 20.1977 21.2786 20.1651 21.3108 20.1326C21.4122 20.0308 21.515 19.9332 21.6239 19.8397C21.7233 19.7512 21.8157 19.6555 21.9093 19.5611C21.9317 19.5386 21.9541 19.5161 21.9765 19.4936C22.0469 19.4229 22.1173 19.3521 22.1876 19.2813C22.2692 19.1991 22.3509 19.1169 22.4327 19.0349C22.465 19.0024 22.4973 18.9698 22.5296 18.9373C22.6309 18.8355 22.7337 18.7379 22.8427 18.6444C22.942 18.5559 23.0345 18.4602 23.128 18.3657C23.1504 18.3432 23.1728 18.3207 23.1953 18.2983C23.2657 18.2276 23.336 18.1568 23.4064 18.086C23.488 18.0038 23.5697 17.9216 23.6514 17.8396C23.6838 17.8071 23.7161 17.7745 23.7483 17.7419C23.8497 17.6402 23.9525 17.5426 24.0614 17.4491C24.1608 17.3606 24.2532 17.2649 24.3468 17.1704C24.3692 17.1479 24.3916 17.1254 24.414 17.1029C24.4844 17.0322 24.5548 16.9615 24.6251 16.8906C24.7067 16.8085 24.7884 16.7263 24.8702 16.6443C24.9025 16.6118 24.9348 16.5792 24.9671 16.5466C25.071 16.4424 25.1762 16.3417 25.2879 16.2458C25.9057 15.7126 26.3342 15.0947 26.4064 14.2656C26.4471 13.6867 26.2622 13.0491 25.8857 12.6022C25.865 12.5787 25.865 12.5787 25.8439 12.5547C25.8289 12.5364 25.8138 12.518 25.7984 12.4991C25.4094 12.0399 24.8615 11.7637 24.2736 11.6641C24.2468 11.6595 24.2468 11.6595 24.2194 11.6547C23.5592 11.5624 22.8737 11.754 22.34 12.146C22.1878 12.2644 22.0544 12.4021 21.9206 12.5403C21.8664 12.5957 21.8109 12.6475 21.7519 12.6976C21.6328 12.8012 21.5223 12.9128 21.4112 13.0249C21.3889 13.0474 21.3664 13.0699 21.344 13.0924C21.2736 13.1631 21.2033 13.2339 21.1329 13.3047C21.0513 13.3869 20.9696 13.469 20.8879 13.5511C20.8555 13.5836 20.8232 13.6162 20.791 13.6487C20.6896 13.7505 20.5868 13.848 20.4779 13.9416C20.3785 14.03 20.2861 14.1258 20.1925 14.2202C20.1701 14.2427 20.1477 14.2652 20.1253 14.2877C20.0549 14.3584 19.9845 14.4292 19.9142 14.5C19.8325 14.5822 19.7509 14.6644 19.6691 14.7464C19.6368 14.7789 19.6045 14.8115 19.5722 14.844C19.4708 14.9459 19.3679 15.0436 19.2588 15.1372C19.1613 15.2239 19.0707 15.3178 18.9789 15.4104C18.9458 15.4437 18.9127 15.4769 18.8796 15.5101C18.822 15.5679 18.7646 15.6258 18.7071 15.6836C18.6385 15.7527 18.5698 15.8219 18.5011 15.8909C18.4584 15.9337 18.4158 15.9766 18.3733 16.0195C18.2876 16.1055 18.202 16.1901 18.1098 16.2692C17.9934 16.3693 17.8864 16.4784 17.7784 16.5874C17.756 16.6099 17.7336 16.6324 17.7112 16.6549C17.6408 16.7256 17.5704 16.7964 17.5001 16.8672C17.4185 16.9494 17.3368 17.0315 17.255 17.1136C17.2227 17.1461 17.1904 17.1787 17.1582 17.2112C17.0568 17.313 16.954 17.4105 16.8451 17.5041C16.7457 17.5925 16.6533 17.6883 16.5597 17.7827C16.5373 17.8052 16.5149 17.8277 16.4925 17.8502C16.422 17.9209 16.3517 17.9917 16.2814 18.0625C16.1997 18.1447 16.1181 18.2269 16.0363 18.3089C16.0039 18.3414 15.9717 18.374 15.9394 18.4065C15.838 18.5083 15.7352 18.6058 15.6263 18.6994C15.527 18.7879 15.4345 18.8836 15.3409 18.978C15.3185 19.0005 15.2961 19.023 15.2737 19.0455C15.2033 19.1162 15.1329 19.187 15.0626 19.2578C14.981 19.34 14.8993 19.4222 14.8175 19.5042C14.7852 19.5367 14.7529 19.5693 14.7207 19.6018C14.6193 19.7036 14.5165 19.8012 14.4076 19.8947C14.3082 19.9832 14.2158 20.0789 14.1222 20.1734C14.0998 20.1959 14.0774 20.2184 14.055 20.2408C13.9845 20.3115 13.9142 20.3823 13.8439 20.4531C13.7622 20.5353 13.6806 20.6175 13.5988 20.6995C13.5664 20.732 13.5342 20.7646 13.5019 20.7972C13.3991 20.9004 13.2948 20.9995 13.1843 21.0944C13.1115 21.1586 13.0444 21.2281 12.9769 21.2977C12.9465 21.3286 12.9161 21.3595 12.8858 21.3903C12.8389 21.4381 12.792 21.4859 12.7454 21.534C12.4858 21.8008 12.2445 22.0371 11.8498 22.0491C11.5855 22.0355 11.3637 21.9386 11.1793 21.7482C11.0415 21.5822 10.9648 21.3639 10.9756 21.1477C11.0347 20.7368 11.3042 20.4758 11.6071 20.2174C11.7263 20.1134 11.8371 20.0015 11.9484 19.8892C11.9708 19.8667 11.9932 19.8442 12.0156 19.8217C12.086 19.751 12.1564 19.6802 12.2267 19.6094C12.3083 19.5272 12.39 19.4451 12.4718 19.363C12.5041 19.3305 12.5364 19.2979 12.5686 19.2654C12.6701 19.1635 12.773 19.0658 12.882 18.9722C12.9795 18.8855 13.0702 18.7916 13.162 18.699C13.1951 18.6658 13.2282 18.6325 13.2613 18.5993C13.3188 18.5415 13.3763 18.4836 13.4337 18.4258C13.5024 18.3567 13.571 18.2875 13.6398 18.2185C13.6824 18.1757 13.725 18.1328 13.7675 18.0899C13.8532 18.0039 13.9389 17.9193 14.031 17.8402C14.1475 17.7401 14.2544 17.631 14.3624 17.522C14.3848 17.4995 14.4072 17.477 14.4296 17.4545C14.5001 17.3838 14.5704 17.313 14.6407 17.2422C14.7224 17.16 14.804 17.0779 14.8858 16.9958C14.9182 16.9633 14.9504 16.9308 14.9827 16.8982C15.0841 16.7964 15.1869 16.6989 15.2958 16.6053C15.3951 16.5169 15.4876 16.4211 15.5812 16.3267C15.6036 16.3042 15.626 16.2817 15.6484 16.2592C15.7188 16.1885 15.7892 16.1177 15.8595 16.0469C15.9411 15.9647 16.0228 15.8826 16.1046 15.8005C16.1369 15.768 16.1692 15.7354 16.2015 15.7029C16.3028 15.6011 16.4056 15.5036 16.5145 15.41C16.6139 15.3216 16.7063 15.2258 16.7999 15.1314C16.8223 15.1089 16.8447 15.0864 16.8671 15.0639C16.9376 14.9932 17.0079 14.9224 17.0782 14.8516C17.1599 14.7694 17.2415 14.6872 17.3233 14.6052C17.3557 14.5727 17.3879 14.5401 17.4202 14.5076C17.5217 14.4057 17.6246 14.308 17.7336 14.2144C17.8311 14.1277 17.9218 14.0338 18.0135 13.9412C18.0466 13.9079 18.0798 13.8747 18.1129 13.8415C18.1704 13.7837 18.2278 13.7258 18.2853 13.668C18.3539 13.5988 18.4226 13.5297 18.4914 13.4607C18.534 13.4179 18.5766 13.375 18.6191 13.3321C18.7048 13.2461 18.7905 13.1615 18.8826 13.0824C18.999 12.9823 19.106 12.8732 19.214 12.7642C19.2364 12.7417 19.2588 12.7192 19.2812 12.6967C19.3516 12.626 19.422 12.5552 19.4923 12.4844C19.5739 12.4022 19.6556 12.3201 19.7374 12.238C19.7697 12.2055 19.802 12.1729 19.8343 12.1404C19.9369 12.0374 20.041 11.9383 20.1513 11.8436C20.2273 11.7766 20.2978 11.7043 20.3687 11.632C20.4011 11.5993 20.4335 11.5667 20.4659 11.534C20.5159 11.4834 20.5659 11.4327 20.6158 11.382C20.8038 11.1913 20.9899 11.0063 21.2032 10.8438C21.2251 10.8269 21.2251 10.8269 21.2474 10.8096C21.8669 10.3388 22.6189 9.9937 23.4046 9.99132Z" fill="#F36621"/>
<path d="M24.4653 13.4762C24.6231 13.6203 24.7294 13.8041 24.7511 14.0181C24.7583 14.3091 24.6817 14.5152 24.4909 14.735C24.4466 14.7814 24.4015 14.8267 24.3557 14.8716C24.3309 14.8963 24.3309 14.8963 24.3056 14.9215C24.2709 14.9561 24.2361 14.9906 24.2013 15.0249C24.1484 15.0771 24.0957 15.1295 24.0431 15.182C24.0091 15.2157 23.9751 15.2495 23.9411 15.2832C23.9256 15.2986 23.9101 15.314 23.8941 15.3299C23.8206 15.4023 23.7462 15.4725 23.6679 15.5397C23.5526 15.6395 23.4461 15.7475 23.3389 15.8558C23.3058 15.889 23.2727 15.9223 23.2396 15.9555C23.1821 16.0133 23.1246 16.0711 23.0672 16.129C22.9985 16.1981 22.9298 16.2673 22.8611 16.3363C22.8184 16.3791 22.7759 16.4219 22.7334 16.4649C22.6477 16.5509 22.562 16.6355 22.4698 16.7146C22.3534 16.8147 22.2465 16.9238 22.1385 17.0328C22.1161 17.0553 22.0937 17.0778 22.0712 17.1003C22.0008 17.171 21.9305 17.2418 21.8601 17.3126C21.7785 17.3948 21.6968 17.4769 21.6151 17.559C21.5827 17.5915 21.5504 17.624 21.5182 17.6566C21.4167 17.7585 21.3138 17.8561 21.2048 17.9498C21.1073 18.0365 21.0166 18.1303 20.9248 18.223C20.8917 18.2562 20.8586 18.2895 20.8255 18.3227C20.768 18.3805 20.7106 18.4383 20.6531 18.4962C20.5844 18.5653 20.5158 18.6344 20.447 18.7035C20.4044 18.7463 20.3618 18.7891 20.3193 18.8321C20.2336 18.9181 20.1479 19.0027 20.0558 19.0818C19.9393 19.1818 19.8324 19.291 19.7244 19.4C19.702 19.4225 19.6796 19.445 19.6572 19.4675C19.5867 19.5382 19.5164 19.609 19.4461 19.6798C19.3644 19.762 19.2828 19.8441 19.201 19.9262C19.1687 19.9587 19.1364 19.9912 19.1041 20.0238C19.0028 20.1255 18.9 20.2231 18.791 20.3167C18.6917 20.4051 18.5992 20.5008 18.5056 20.5953C18.4832 20.6178 18.4608 20.6403 18.4384 20.6628C18.368 20.7335 18.2977 20.8043 18.2273 20.8751C18.1457 20.9573 18.064 21.0394 17.9823 21.1215C17.9499 21.154 17.9176 21.1865 17.8854 21.2191C17.781 21.3239 17.6753 21.4255 17.5629 21.5217C17.0934 21.9238 16.7406 22.4972 16.662 23.1177C16.6141 23.8579 16.7754 24.5165 17.2642 25.0879C17.6872 25.5614 18.2993 25.8757 18.9351 25.9193C19.2717 25.9314 19.5924 25.9224 19.9148 25.8204C19.9309 25.8154 19.947 25.8104 19.9635 25.8052C20.7128 25.5637 21.2287 24.956 21.7679 24.4127C21.852 24.3279 21.9363 24.2431 22.0206 24.1584C22.0394 24.1394 22.0582 24.1204 22.0776 24.1009C22.1588 24.0194 22.2402 23.9397 22.3275 23.8648C22.4442 23.7643 22.5516 23.6549 22.6599 23.5455C22.6823 23.523 22.7047 23.5005 22.7272 23.478C22.7976 23.4073 22.8679 23.3365 22.9383 23.2657C23.0199 23.1835 23.1016 23.1014 23.1833 23.0193C23.2157 22.9868 23.248 22.9543 23.2802 22.9217C23.3816 22.8199 23.4844 22.7224 23.5933 22.6288C23.6927 22.5404 23.7851 22.4446 23.8787 22.3502C23.9011 22.3277 23.9235 22.3052 23.9459 22.2827C24.0163 22.212 24.0867 22.1412 24.157 22.0704C24.2386 21.9882 24.3203 21.9061 24.4021 21.824C24.4344 21.7915 24.4667 21.759 24.499 21.7264C24.6003 21.6246 24.7031 21.5271 24.8121 21.4335C24.9114 21.3451 25.0038 21.2493 25.0974 21.1549C25.1198 21.1324 25.1422 21.1099 25.1647 21.0874C25.2351 21.0167 25.3054 20.9459 25.3758 20.8751C25.4574 20.7929 25.5391 20.7108 25.6208 20.6287C25.6532 20.5962 25.6855 20.5636 25.7177 20.5311C25.8191 20.4293 25.9219 20.3318 26.0308 20.2382C26.1302 20.1497 26.2226 20.054 26.3162 19.9596C26.3386 19.9371 26.361 19.9146 26.3834 19.8921C26.4538 19.8214 26.5242 19.7506 26.5945 19.6798C26.6761 19.5976 26.7578 19.5154 26.8396 19.4334C26.8719 19.4009 26.9042 19.3683 26.9365 19.3358C27.0389 19.2329 27.1428 19.1343 27.2529 19.0397C27.3329 18.9689 27.4067 18.892 27.4812 18.8155C27.5157 18.7805 27.5503 18.7454 27.5848 18.7104C27.6383 18.6561 27.6917 18.6016 27.7449 18.547C28.263 18.0161 28.263 18.0161 28.6003 17.9844C28.9099 17.9811 29.1274 18.0512 29.3527 18.2639C29.4983 18.4182 29.5742 18.6243 29.5711 18.836C29.5368 19.2336 29.3244 19.435 29.054 19.7076C29.0407 19.721 29.0275 19.7343 29.0139 19.7481C28.9471 19.8146 28.8791 19.8784 28.8073 19.9395C28.6882 20.0433 28.5777 20.155 28.4666 20.2672C28.4442 20.2897 28.4218 20.3122 28.3994 20.3347C28.3289 20.4054 28.2586 20.4762 28.1883 20.547C28.1066 20.6291 28.025 20.7113 27.9432 20.7933C27.9108 20.8258 27.8786 20.8584 27.8463 20.891C27.7448 20.9928 27.6419 21.0905 27.5329 21.1842C27.4354 21.2709 27.3447 21.3647 27.253 21.4574C27.2199 21.4906 27.1868 21.5238 27.1536 21.5571C27.0961 21.6148 27.0387 21.6727 26.9812 21.7306C26.9126 21.7997 26.8439 21.8688 26.7751 21.9378C26.7325 21.9806 26.6899 22.0235 26.6474 22.0664C26.5617 22.1525 26.476 22.237 26.3839 22.3162C26.2675 22.4162 26.1605 22.5254 26.0525 22.6344C26.0301 22.6569 26.0077 22.6794 25.9853 22.7018C25.9149 22.7725 25.8445 22.8433 25.7742 22.9141C25.6926 22.9963 25.6109 23.0785 25.5291 23.1605C25.4968 23.193 25.4645 23.2256 25.4322 23.2582C25.3308 23.36 25.2279 23.4577 25.1188 23.5513C25.0214 23.6381 24.9307 23.7319 24.8389 23.8245C24.8058 23.8578 24.7727 23.891 24.7396 23.9243C24.6821 23.982 24.6246 24.0399 24.5672 24.0977C24.4985 24.1669 24.4298 24.236 24.3611 24.305C24.3184 24.3478 24.2759 24.3907 24.2334 24.4336C24.1477 24.5196 24.062 24.6042 23.9698 24.6834C23.8534 24.7834 23.7465 24.8926 23.6385 25.0016C23.6161 25.0241 23.5937 25.0465 23.5712 25.069C23.5008 25.1397 23.4305 25.2105 23.3601 25.2813C23.2785 25.3635 23.1968 25.4457 23.1151 25.5277C23.0827 25.5602 23.0504 25.5928 23.0182 25.6254C22.9148 25.7291 22.8099 25.829 22.6988 25.9244C22.6367 25.9788 22.5797 26.037 22.5221 26.0962C22.4977 26.121 22.4733 26.1459 22.4489 26.1707C22.4364 26.1834 22.424 26.1961 22.4112 26.2091C22.1999 26.424 21.9912 26.6322 21.743 26.8048C21.7299 26.8142 21.7169 26.8236 21.7034 26.8333C20.7596 27.5127 19.6049 27.7657 18.4589 27.5905C17.6013 27.4444 16.8306 27.0669 16.2012 26.4646C16.1766 26.441 16.1518 26.4176 16.127 26.3943C15.3554 25.6681 14.9368 24.627 14.894 23.5767C14.882 23.1136 14.9466 22.6524 15.0867 22.211C15.0952 22.1841 15.0952 22.1841 15.1039 22.1566C15.2458 21.7192 15.4565 21.3059 15.743 20.9454C15.7642 20.9183 15.7642 20.9183 15.7859 20.8907C15.9206 20.7225 16.0662 20.5687 16.2191 20.417C16.2441 20.392 16.2691 20.367 16.2941 20.342C16.3461 20.2901 16.3981 20.2383 16.4502 20.1865C16.5164 20.1206 16.5826 20.0546 16.6486 19.9885C16.7001 19.937 16.7516 19.8857 16.8031 19.8343C16.8275 19.81 16.8519 19.7856 16.8763 19.7613C16.9952 19.6426 17.1151 19.5266 17.2426 19.4171C17.3417 19.3289 17.4338 19.2334 17.5271 19.1392C17.5495 19.1167 17.5719 19.0943 17.5943 19.0718C17.6648 19.0011 17.7351 18.9303 17.8055 18.8595C17.8871 18.7773 17.9688 18.6951 18.0505 18.6131C18.0829 18.5806 18.1151 18.548 18.1474 18.5154C18.2488 18.4137 18.3516 18.3161 18.4605 18.2226C18.5599 18.1341 18.6523 18.0384 18.7459 17.9439C18.7683 17.9214 18.7907 17.8989 18.8131 17.8765C18.8835 17.8058 18.9539 17.735 19.0242 17.6641C19.1058 17.582 19.1875 17.4998 19.2693 17.4178C19.3016 17.3853 19.3339 17.3527 19.3662 17.3201C19.4675 17.2184 19.5703 17.1208 19.6792 17.0273C19.7786 16.9388 19.871 16.8431 19.9646 16.7486C19.987 16.7261 20.0094 16.7036 20.0318 16.6811C20.1023 16.6104 20.1726 16.5396 20.243 16.4688C20.3246 16.3866 20.4063 16.3045 20.488 16.2225C20.5204 16.19 20.5526 16.1574 20.5849 16.1248C20.6863 16.0231 20.7891 15.9255 20.898 15.832C20.9974 15.7435 21.0898 15.6478 21.1834 15.5533C21.2058 15.5308 21.2282 15.5083 21.2506 15.4858C21.321 15.4151 21.3914 15.3443 21.4617 15.2735C21.5433 15.1913 21.625 15.1092 21.7068 15.0271C21.7391 14.9946 21.7714 14.9621 21.8037 14.9295C21.8907 14.8422 21.9776 14.7561 22.0712 14.6758C22.1871 14.5763 22.2932 14.4675 22.4005 14.3588C22.4228 14.3364 22.4451 14.3139 22.4674 14.2915C22.5611 14.1972 22.6546 14.1028 22.7481 14.0083C22.8057 13.9501 22.8633 13.8921 22.9211 13.8341C22.9532 13.8017 22.9851 13.7693 23.0171 13.7369C23.4329 13.3194 23.941 13.0593 24.4653 13.4762Z" fill="#F36621"/>
</g>
<defs>
<clipPath id="clip0_526_29064">
<rect width="24" height="24" fill="white" transform="translate(10 10)"/>
</clipPath>
</defs>
</svg>
