<svg width="48" height="48" viewBox="0 0 48 48" fill="none" xmlns="http://www.w3.org/2000/svg">
<g clip-path="url(#clip0_114_2)">
<path d="M44 0H4C1.79086 0 0 1.79086 0 4V44C0 46.2091 1.79086 48 4 48H44C46.2091 48 48 46.2091 48 44V4C48 1.79086 46.2091 0 44 0Z" fill="#1E45B8" fill-opacity="0.08"/>
<path d="M20 30C19.7348 30 19.4804 29.8946 19.2929 29.7071C19.1054 29.5196 19 29.2652 19 29V15C19 14.7348 19.1054 14.4804 19.2929 14.2929C19.4804 14.1054 19.7348 14 20 14C20.2652 14 20.5196 14.1054 20.7071 14.2929C20.8946 14.4804 21 14.7348 21 15V29C21 29.2652 20.8946 29.5196 20.7071 29.7071C20.5196 29.8946 20.2652 30 20 30Z" fill="#1E45B8"/>
<path d="M24 30C23.7348 30 23.4804 29.8946 23.2929 29.7071C23.1054 29.5196 23 29.2652 23 29V15C23 14.7348 23.1054 14.4804 23.2929 14.2929C23.4804 14.1054 23.7348 14 24 14C24.2652 14 24.5196 14.1054 24.7071 14.2929C24.8946 14.4804 25 14.7348 25 15V29C25 29.2652 24.8946 29.5196 24.7071 29.7071C24.5196 29.8946 24.2652 30 24 30Z" fill="#1E45B8"/>
<path d="M28 30C27.7348 30 27.4804 29.8946 27.2929 29.7071C27.1054 29.5196 27 29.2652 27 29V15C27 14.7348 27.1054 14.4804 27.2929 14.2929C27.4804 14.1054 27.7348 14 28 14C28.2652 14 28.5196 14.1054 28.7071 14.2929C28.8946 14.4804 29 14.7348 29 15V29C29 29.2652 28.8946 29.5196 28.7071 29.7071C28.5196 29.8946 28.2652 30 28 30Z" fill="#1E45B8"/>
<path d="M31.85 25C31.6074 25.047 31.3892 25.1781 31.2337 25.3702C31.0782 25.5622 30.9955 25.8029 31 26.05V32H17V26.05C17.0045 25.8029 16.9218 25.5622 16.7663 25.3702C16.6108 25.1781 16.3926 25.047 16.15 25C16.0067 24.9782 15.8603 24.9879 15.7211 25.0283C15.5819 25.0687 15.4532 25.139 15.3438 25.2341C15.2344 25.3292 15.147 25.447 15.0876 25.5792C15.0283 25.7115 14.9984 25.855 15 26V33C15 33.2652 15.1054 33.5196 15.2929 33.7071C15.4804 33.8946 15.7348 34 16 34H32C32.2652 34 32.5196 33.8946 32.7071 33.7071C32.8946 33.5196 33 33.2652 33 33V26C33.0016 25.855 32.9718 25.7115 32.9124 25.5792C32.853 25.447 32.7656 25.3292 32.6562 25.2341C32.5469 25.139 32.4181 25.0687 32.2789 25.0283C32.1397 24.9879 31.9933 24.9782 31.85 25Z" fill="#1E45B8"/>
<path d="M16.9 19.85L13.25 17.55C13.1 17.45 13 17.5 13 17.7V22.3C13 22.5 13.1 22.55 13.25 22.45L16.9 20.15C17.0667 20.05 17.0667 19.95 16.9 19.85Z" fill="#1E45B8"/>
<path d="M34.9 19.85L31.25 17.55C31.1 17.45 31 17.5 31 17.7V22.3C31 22.5 31.1 22.55 31.25 22.45L34.9 20.15C35.0667 20.05 35.0667 19.95 34.9 19.85Z" fill="#1E45B8"/>
</g>
<defs>
<clipPath id="clip0_114_2">
<rect width="48" height="48" fill="white"/>
</clipPath>
</defs>
</svg>
