<svg width="48" height="48" viewBox="0 0 48 48" fill="none" xmlns="http://www.w3.org/2000/svg">
<g clip-path="url(#clip0_152_2)">
<path d="M46.176 0H1.824C0.816633 0 0 0.816633 0 1.824V46.176C0 47.1834 0.816633 48 1.824 48H46.176C47.1834 48 48 47.1834 48 46.176V1.824C48 0.816633 47.1834 0 46.176 0Z" fill="#1EB852" fill-opacity="0.08"/>
<path d="M21 27H16C15.4696 27 14.9609 26.7893 14.5858 26.4142C14.2107 26.0391 14 25.5304 14 25V12C14 11.4695 14.2107 10.9608 14.5858 10.5858C14.9609 10.2107 15.4696 9.99997 16 9.99997H19.9C20.2345 9.99669 20.5645 10.0774 20.8597 10.2346C21.1549 10.3918 21.406 10.6206 21.59 10.9L22.4 12.1C22.5821 12.3765 22.83 12.6035 23.1215 12.7606C23.413 12.9177 23.7389 12.9999 24.07 13H32C32.5304 13 33.0391 13.2107 33.4142 13.5858C33.7893 13.9608 34 14.4695 34 15V15.5" stroke="#1EB852" stroke-width="2" stroke-linecap="round" stroke-linejoin="round"/>
<path d="M24 17V21H28" stroke="#1EB852" stroke-width="2" stroke-linecap="round" stroke-linejoin="round"/>
<path d="M24 21L25.535 19.395C26.109 18.8433 26.8065 18.4367 27.5694 18.2089C28.3323 17.9812 29.1386 17.9389 29.9211 18.0856C30.7037 18.2324 31.4399 18.5638 32.0684 19.0525C32.697 19.5411 33.1998 20.1728 33.535 20.895" stroke="#1EB852" stroke-width="2" stroke-linecap="round" stroke-linejoin="round"/>
<path d="M34 29V25H30" stroke="#1EB852" stroke-width="2" stroke-linecap="round" stroke-linejoin="round"/>
<path d="M34 25L32.465 26.605C31.8909 27.1567 31.1934 27.5633 30.4305 27.7911C29.6676 28.0188 28.8614 28.0611 28.0788 27.9144C27.2963 27.7676 26.5601 27.4362 25.9315 26.9475C25.303 26.4589 24.8002 25.8272 24.465 25.105" stroke="#1EB852" stroke-width="2" stroke-linecap="round" stroke-linejoin="round"/>
<path d="M15.3 39.09C14.46 39.09 13.79 38.8833 13.29 38.47C12.7967 38.0567 12.5067 37.4667 12.42 36.7H13.22C13.2933 37.2533 13.5033 37.67 13.85 37.95C14.1967 38.23 14.6767 38.37 15.29 38.37C15.81 38.37 16.2 38.2733 16.46 38.08C16.7267 37.88 16.86 37.59 16.86 37.21C16.86 36.8833 16.77 36.6233 16.59 36.43C16.41 36.2367 16.13 36.0767 15.75 35.95L14.54 35.53C13.9267 35.3167 13.4733 35.06 13.18 34.76C12.8867 34.4533 12.74 34.0667 12.74 33.6C12.74 33.2133 12.8367 32.88 13.03 32.6C13.2233 32.3133 13.4967 32.09 13.85 31.93C14.2033 31.77 14.6133 31.69 15.08 31.69C15.8 31.69 16.3767 31.88 16.81 32.26C17.2433 32.6333 17.4933 33.1667 17.56 33.86H16.76C16.6733 33.36 16.4933 32.9933 16.22 32.76C15.9533 32.5267 15.5667 32.41 15.06 32.41C14.58 32.41 14.2067 32.5067 13.94 32.7C13.6733 32.8933 13.54 33.1667 13.54 33.52C13.54 33.82 13.6333 34.06 13.82 34.24C14.0067 34.42 14.2967 34.5767 14.69 34.71L15.98 35.16C16.54 35.3533 16.96 35.6167 17.24 35.95C17.52 36.2767 17.66 36.6933 17.66 37.2C17.66 37.8 17.4533 38.2667 17.04 38.6C16.6333 38.9267 16.0533 39.09 15.3 39.09ZM18.944 39V31.8H19.764V39H18.944ZM19.364 35.91V35.19H23.244V35.91H19.364ZM19.364 32.52V31.8H23.524V32.52H19.364ZM26.9101 39V32.52H24.4401V31.8H30.2001V32.52H27.7301V39H26.9101ZM31.4245 39V31.8H34.2845C34.7978 31.8 35.2345 31.8833 35.5945 32.05C35.9545 32.2167 36.2278 32.4567 36.4145 32.77C36.6078 33.0833 36.7045 33.46 36.7045 33.9C36.7045 34.34 36.6078 34.72 36.4145 35.04C36.2278 35.3533 35.9545 35.5967 35.5945 35.77C35.2345 35.9433 34.7978 36.03 34.2845 36.03H32.0245V35.31H34.2545C34.7878 35.31 35.1911 35.19 35.4645 34.95C35.7445 34.7033 35.8845 34.3533 35.8845 33.9C35.8845 33.4467 35.7478 33.1033 35.4745 32.87C35.2011 32.6367 34.7945 32.52 34.2545 32.52H32.2445V39H31.4245Z" fill="#1EB852"/>
</g>
<defs>
<clipPath id="clip0_152_2">
<rect width="48" height="48" fill="white"/>
</clipPath>
</defs>
</svg>
