<svg width="48" height="48" viewBox="0 0 48 48" fill="none" xmlns="http://www.w3.org/2000/svg">
<g clip-path="url(#clip0_127_5)">
<path d="M27.6 36V32H22.8V18.6667H20.4V22.6667H12V12H20.4V16H27.6V12H36V22.6667H27.6V18.6667H25.2V29.3333H27.6V25.3333H36V36H27.6ZM30 20H33.6V14.6667H30V20ZM30 33.3333H33.6V28H30V33.3333ZM14.4 20H18V14.6667H14.4V20Z" fill="#1E45B8"/>
</g>
<path d="M44 0H4C1.79086 0 0 1.79086 0 4V44C0 46.2091 1.79086 48 4 48H44C46.2091 48 48 46.2091 48 44V4C48 1.79086 46.2091 0 44 0Z" fill="#1E45B8" fill-opacity="0.08"/>
<defs>
<clipPath id="clip0_127_5">
<rect width="24" height="24" fill="white" transform="translate(12 12)"/>
</clipPath>
</defs>
</svg>
