<svg width="70" height="70" viewBox="0 0 70 70" fill="none" xmlns="http://www.w3.org/2000/svg">
<rect width="70" height="70" rx="4" fill="#1E45B8" fill-opacity="0.08"/>
<path d="M29 17H21C19.9391 17 18.9217 17.4214 18.1716 18.1716C17.4214 18.9217 17 19.9391 17 21V29M29 17H49C50.0609 17 51.0783 17.4214 51.8284 18.1716C52.5786 18.9217 53 19.9391 53 21V29M29 17V53M17 29V49C17 50.0609 17.4214 51.0783 18.1716 51.8284C18.9217 52.5786 19.9391 53 21 53H29M17 29H53M53 29V49C53 50.0609 52.5786 51.0783 51.8284 51.8284C51.0783 52.5786 50.0609 53 49 53H29" stroke="#1E45B8" stroke-width="4" stroke-linecap="round" stroke-linejoin="round"/>
</svg>
