<svg xmlns="http://www.w3.org/2000/svg" width="1210" height="346" viewBox="0 0 1210 346">
<g>
<path d="M 535.03 260.91 C525.55,259.25 516.61,254.41 510.02,247.36 C503.20,240.08 500.43,234.46 498.82,224.73 C496.45,210.41 500.77,196.36 510.63,186.31 C516.52,180.31 527.41,174.00 531.89,174.00 C533.05,174.00 534.00,173.66 534.00,173.25 C534.00,173.23 534.02,173.20 534.05,173.18 C534.28,173.64 535.41,173.99 536.75,173.98 C538.89,173.97 539.17,173.76 538.00,173.00 C537.87,172.92 537.74,172.84 537.62,172.77 C541.54,172.60 547.76,172.67 551.67,172.93 C550.90,173.76 551.22,174.00 553.00,174.00 C554.52,174.00 554.98,173.82 554.59,173.25 C554.76,173.29 554.89,173.32 555.00,173.36 C555.83,173.65 558.75,174.62 561.50,175.51 C572.68,179.14 581.40,187.05 586.16,197.90 C587.75,201.53 589.55,205.37 590.15,206.43 C590.22,206.55 590.29,206.73 590.35,206.95 C590.35,206.95 590.35,206.95 590.35,206.95 C589.83,206.43 589.46,210.83 589.46,217.49 C589.46,223.33 589.68,226.84 590.06,227.42 C589.37,229.39 588.26,231.72 586.51,235.32 C579.99,248.73 572.37,255.45 559.28,259.33 C552.30,261.40 541.73,262.09 535.03,260.91 ZM 695.93 260.25 L 684.36 259.94 L 682.61 253.72 C680.77,247.20 677.64,236.72 671.40,216.25 C669.25,209.18 667.14,204.00 666.43,204.00 C664.93,204.00 662.00,212.17 662.62,214.44 C662.45,214.34 662.24,214.35 662.00,214.50 C661.45,214.84 661.00,215.79 661.00,216.62 C661.00,217.42 661.42,217.82 661.95,217.53 C661.88,217.62 661.82,217.70 661.74,217.79 C660.92,218.73 658.40,226.02 656.16,234.00 C653.91,241.98 651.27,250.98 650.28,254.00 L 648.50 259.50 L 637.93 259.78 C631.76,259.95 628.66,260.08 626.61,258.69 C624.46,257.23 623.46,254.08 621.23,247.50 C619.56,242.55 615.41,230.85 612.00,221.50 C602.20,194.58 596.68,177.29 597.33,175.58 C597.82,174.30 599.66,174.00 606.89,174.00 C611.81,174.00 616.55,174.27 617.42,174.61 C618.29,174.94 619.73,177.76 620.61,180.86 C625.09,196.61 634.84,227.69 636.04,230.08 C635.46,229.45 634.86,229.00 634.57,229.00 C633.55,229.00 635.07,233.37 636.38,234.21 C637.89,235.18 639.71,233.15 640.60,229.51 C641.29,226.72 641.23,226.63 639.67,228.19 C639.58,228.27 639.50,228.37 639.41,228.46 C641.29,224.05 651.96,190.27 655.03,178.86 C656.20,174.53 657.55,174.03 668.13,174.01 C673.68,174.00 676.09,174.41 676.99,175.49 C677.67,176.31 679.94,182.73 682.02,189.74 C688.51,211.57 692.81,224.74 694.56,228.12 C694.72,228.43 694.86,228.70 695.00,228.94 C694.65,228.37 694.25,228.00 693.93,228.00 C692.52,228.00 692.81,229.67 694.53,231.39 C695.94,232.80 698.98,232.63 699.01,231.14 C699.02,230.79 699.27,229.38 699.57,228.00 C700.01,225.98 699.74,226.16 698.18,228.94 C696.36,232.18 696.21,232.25 695.56,230.19 C695.46,229.87 695.34,229.58 695.20,229.31 C696.17,231.01 696.56,230.95 697.43,229.76 C698.09,228.87 701.89,216.97 705.88,203.32 C709.17,192.10 712.23,181.88 713.50,177.90 C713.76,178.08 714.52,177.63 715.64,176.50 C717.23,174.91 726.00,174.45 731.96,175.64 C734.98,176.25 735.13,176.48 734.54,179.64 C733.87,183.22 734.76,183.80 735.86,181.68 C734.54,185.39 732.93,189.60 732.06,191.50 C730.68,194.51 726.86,205.10 725.94,208.50 C725.49,210.15 723.93,214.65 722.48,218.50 C721.03,222.35 719.00,227.98 717.98,231.00 C716.96,234.02 714.70,240.55 712.95,245.50 C711.00,251.03 710.13,253.72 709.64,256.18 C709.35,256.37 708.89,256.78 708.19,257.38 C707.01,258.42 706.29,259.66 706.58,260.13 C706.72,260.36 706.91,260.55 707.11,260.68 C705.10,260.55 700.75,260.39 695.93,260.25 ZM 826.53 231.05 C827.36,232.67 828.48,234.00 829.00,234.00 C830.35,234.00 833.27,229.30 832.79,227.88 C832.58,227.23 831.70,228.14 830.84,229.90 L 829.29 233.11 L 828.02 230.06 C828.00,229.99 827.97,229.93 827.94,229.87 C828.42,230.64 828.81,231.00 829.14,231.00 C830.70,231.00 832.90,226.44 836.85,215.00 C844.05,194.18 850.77,175.90 851.47,175.19 C851.85,174.81 856.41,174.34 861.61,174.15 C873.76,173.71 874.50,174.23 872.00,181.51 C870.98,184.47 869.48,188.38 868.66,190.20 C866.88,194.15 857.39,217.84 855.31,223.50 C854.51,225.70 853.26,228.85 852.54,230.50 C851.82,232.15 850.66,235.07 849.96,237.00 C849.26,238.93 847.69,242.75 846.47,245.50 C845.25,248.25 843.12,253.43 841.73,257.00 C840.34,260.58 838.10,265.98 836.75,269.00 C835.40,272.02 832.36,279.45 829.99,285.50 C827.62,291.55 825.25,297.06 824.72,297.75 C824.68,297.80 824.62,297.85 824.53,297.90 C824.57,297.33 821.50,297.00 815.92,297.00 C808.32,297.00 806.50,296.70 805.43,295.25 C804.88,294.50 804.56,294.09 804.30,294.03 C804.58,293.38 804.93,292.61 805.35,291.72 C806.79,288.69 810.26,280.45 813.08,273.40 L 818.20 260.59 L 814.68 251.54 C812.74,246.57 807.28,233.05 802.53,221.50 C788.63,187.66 784.71,177.19 785.34,175.55 C785.82,174.29 787.84,174.00 795.95,174.00 C801.27,174.00 804.11,173.91 806.09,175.17 C808.53,176.73 809.66,180.34 812.52,188.70 C814.36,194.09 817.06,201.65 818.51,205.50 C819.96,209.35 822.19,215.43 823.45,219.00 C824.94,223.19 826.10,226.16 827.01,228.11 C826.57,227.43 826.15,227.00 825.88,227.00 C824.66,227.00 824.77,227.65 826.53,231.05 ZM 397.72 250.54 C397.97,253.03 398.30,255.15 398.52,255.80 C398.48,256.23 398.44,256.55 398.40,256.75 L 397.75 260.00 L 375.00 260.00 L 375.00 198.61 C375.00,252.51 375.18,260.00 376.50,260.00 C378.06,260.00 378.55,258.46 377.25,257.65 C376.84,257.40 376.50,230.48 376.50,197.84 L 376.50 138.50 L 410.25 138.24 L 444.00 137.97 L 444.00 145.43 C444.00,149.53 443.55,153.16 443.00,153.50 C441.83,154.22 441.75,155.97 442.54,156.68 C440.01,157.00 434.94,157.00 424.51,157.00 C413.37,157.00 402.95,157.26 401.35,157.58 L 398.46 158.16 L 398.44 166.92 C398.34,162.78 398.11,160.00 397.82,160.00 C397.37,160.00 397.00,166.94 397.00,175.42 C397.00,186.81 397.33,190.96 398.25,191.34 C400.33,192.18 402.00,192.06 402.00,191.07 C402.00,190.55 401.18,189.87 400.18,189.56 C399.97,189.49 399.78,189.41 399.62,189.30 C401.05,189.67 410.43,189.98 421.25,189.98 L 442.00 190.00 L 438.03 190.00 C435.82,190.00 434.00,190.45 434.00,191.00 C434.00,191.55 434.81,192.00 435.80,192.00 C436.79,192.00 438.14,192.54 438.80,193.20 C440.23,194.63 440.43,206.62 439.04,207.47 C438.52,207.80 438.35,208.74 438.67,209.57 C438.72,209.71 438.78,209.83 438.85,209.94 C436.37,208.85 414.02,209.17 410.02,210.38 C410.25,210.27 410.41,210.14 410.50,210.00 C410.89,209.38 408.93,209.01 405.31,209.02 C401.19,209.03 399.94,209.31 401.00,210.00 C401.14,210.09 401.31,210.18 401.50,210.26 C401.04,210.15 400.61,210.04 400.21,209.91 C399.25,209.61 398.97,213.31 398.98,227.78 C398.89,217.25 398.54,211.00 398.03,211.00 C396.97,211.00 396.74,241.07 397.72,250.54 ZM 1018.23 260.48 C1004.54,257.51 995.16,250.19 989.00,237.69 C985.79,231.15 984.85,227.99 984.38,222.00 C982.78,201.96 992.20,184.89 1009.27,176.89 C1016.05,173.71 1017.15,173.50 1027.00,173.50 C1039.78,173.50 1046.96,175.53 1054.05,181.13 C1059.14,185.16 1063.61,191.02 1064.18,194.42 C1064.44,195.97 1062.97,197.01 1056.66,199.75 L 1048.82 203.15 L 1045.44 199.20 C1041.75,194.89 1036.20,191.76 1033.71,192.56 C1033.90,192.42 1034.00,192.23 1034.00,192.00 C1034.00,191.45 1032.31,191.03 1030.25,191.07 C1027.32,191.13 1026.91,191.30 1028.38,191.95 C1022.15,190.15 1013.84,194.67 1008.92,202.62 C1007.37,205.13 1006.91,206.93 1006.81,212.64 C1006.63,211.02 1006.34,210.00 1006.00,210.00 C1005.44,210.00 1005.00,212.83 1005.00,216.50 C1005.00,220.17 1005.44,223.00 1006.00,223.00 C1006.35,223.00 1006.66,221.88 1006.83,220.15 C1007.04,228.44 1008.06,230.86 1012.17,235.55 C1016.38,240.33 1022.13,242.95 1028.50,242.97 C1036.01,243.00 1040.15,241.45 1044.49,237.01 C1046.64,234.81 1049.33,233.00 1050.45,233.00 C1051.58,233.00 1055.30,234.33 1058.72,235.94 L 1064.94 238.88 L 1063.86 241.97 C1062.39,246.18 1054.44,254.28 1049.16,256.94 C1044.74,259.17 1031.97,262.06 1027.16,261.92 C1025.70,261.88 1021.68,261.23 1018.23,260.48 ZM 1097.50 260.51 C1086.84,258.16 1078.27,251.82 1074.20,243.30 C1072.62,239.98 1072.63,239.78 1074.52,238.67 C1076.25,237.65 1082.92,235.05 1088.23,233.34 C1089.45,232.94 1090.25,233.53 1090.92,235.29 C1092.23,238.74 1098.44,243.27 1102.31,243.60 C1102.53,243.62 1102.74,243.64 1102.95,243.66 C1100.98,243.80 1100.54,244.31 1102.46,244.99 C1105.47,246.04 1112.00,246.15 1112.00,245.14 C1112.00,244.81 1111.10,244.43 1109.75,244.14 C1116.12,244.44 1117.79,243.79 1119.64,241.63 C1122.63,238.16 1122.85,232.08 1120.09,229.59 C1117.99,227.68 1109.23,224.74 1107.97,225.52 C1107.94,225.53 1107.92,225.55 1107.89,225.56 C1107.97,225.45 1108.00,225.30 1108.00,225.13 C1108.00,224.65 1106.54,224.00 1104.75,223.67 C1102.96,223.34 1100.49,222.78 1099.25,222.42 C1097.92,222.04 1097.00,222.20 1097.00,222.82 C1097.00,222.96 1097.11,223.12 1097.31,223.29 C1097.11,223.15 1097.00,223.03 1097.00,222.92 C1097.00,222.41 1096.44,222.00 1095.75,222.00 C1092.62,222.00 1082.09,215.93 1079.27,212.51 C1071.79,203.44 1073.03,190.03 1082.16,181.31 C1085.40,178.21 1093.72,174.00 1096.58,174.00 C1097.36,174.00 1098.00,173.64 1098.00,173.21 C1098.00,173.18 1098.01,173.16 1098.02,173.13 C1098.19,173.62 1099.27,174.00 1100.56,174.00 C1102.01,174.00 1102.85,173.57 1102.50,173.00 C1102.41,172.85 1102.26,172.72 1102.08,172.59 C1104.95,172.54 1108.85,172.70 1112.09,173.02 C1110.75,173.82 1111.01,173.94 1113.45,173.97 C1114.96,173.99 1115.65,173.85 1115.66,173.49 C1116.43,173.62 1117.06,173.78 1117.50,173.94 C1124.59,176.57 1126.63,177.45 1128.75,178.80 C1130.97,180.21 1135.27,185.68 1137.12,189.06 C1136.59,189.00 1135.94,189.61 1135.53,190.91 C1135.20,191.96 1134.27,193.07 1133.46,193.38 C1132.66,193.68 1132.00,194.41 1132.00,194.99 C1132.00,195.49 1132.75,195.48 1133.95,194.99 C1133.06,195.37 1132.03,195.75 1130.86,196.11 C1124.59,198.06 1122.78,198.73 1121.82,198.10 C1121.32,197.77 1121.06,197.08 1120.52,196.03 C1118.21,191.57 1113.16,189.00 1106.70,189.00 C1099.77,189.00 1096.59,190.17 1094.39,193.53 C1090.68,199.19 1096.53,205.25 1106.74,206.32 C1107.48,206.39 1108.26,206.50 1109.04,206.64 C1108.70,206.59 1108.36,206.55 1108.00,206.51 C1102.77,205.92 1102.62,205.96 1105.00,207.41 C1106.38,208.25 1109.28,208.95 1111.45,208.96 C1114.65,208.99 1115.27,208.45 1114.02,207.83 C1114.65,208.04 1115.18,208.26 1115.57,208.46 C1117.18,209.30 1119.18,209.99 1120.00,210.00 C1122.36,210.03 1132.25,214.90 1134.85,217.32 C1140.56,222.63 1142.89,232.20 1140.57,240.84 C1137.41,252.61 1130.24,258.38 1115.57,260.96 C1108.15,262.26 1105.05,262.18 1097.50,260.51 ZM 912.00 260.88 C912.00,260.53 910.65,259.98 909.01,259.65 C905.74,259.00 897.00,251.55 897.00,249.42 C897.00,248.69 896.26,247.68 895.35,247.18 C895.15,247.06 894.96,246.93 894.81,246.78 C895.02,246.92 895.25,247.00 895.50,247.00 C897.18,247.00 897.25,246.82 896.39,244.58 C895.82,243.08 894.93,242.71 894.41,243.36 C894.52,242.56 894.43,242.00 894.16,242.00 C894.13,242.00 894.11,241.95 894.09,241.86 C894.17,241.95 894.27,242.00 894.38,242.00 C895.14,242.00 895.39,239.41 895.17,233.91 C894.99,229.47 894.70,225.98 894.53,226.16 C894.36,226.34 894.03,229.62 893.78,233.59 C893.73,229.07 893.74,223.09 893.83,216.55 L 894.15 191.10 L 887.83 190.80 L 881.50 190.50 L 881.21 182.25 L 880.92 174.00 L 881.00 174.00 L 881.16 179.25 C881.28,183.30 881.42,183.70 881.74,181.00 C882.35,175.92 883.57,175.00 889.62,175.00 L 895.00 175.00 L 894.85 165.25 C894.72,156.96 894.57,155.98 893.85,163.29 C893.94,161.29 894.00,159.19 894.00,157.36 L 894.00 150.00 L 904.47 150.00 C894.67,150.00 894.00,150.13 894.00,152.00 C894.00,154.20 895.03,154.57 896.65,152.95 C898.21,151.39 911.56,150.47 912.42,151.87 C913.35,153.38 914.80,153.29 914.98,151.83 L 915.22 161.75 L 915.50 173.50 L 921.15 173.80 C917.52,173.84 914.66,174.06 915.07,174.47 C915.60,175.00 919.39,175.46 923.47,175.47 C927.56,175.49 931.40,176.00 932.01,176.61 C932.64,177.24 932.98,180.23 932.80,183.60 L 932.50 189.50 L 926.50 189.75 C923.20,189.88 919.04,190.24 917.25,190.54 L 914.00 191.09 L 914.00 210.55 C914.00,222.85 914.37,230.00 915.00,230.00 C915.29,230.00 915.53,228.50 915.70,225.70 C915.80,237.02 916.80,239.29 919.94,240.97 C922.41,242.29 932.00,242.32 932.00,241.00 C932.00,240.74 932.15,240.51 932.39,240.33 C931.79,240.88 932.00,242.13 933.04,244.07 C933.76,245.41 934.25,246.02 934.56,245.85 C934.51,246.70 934.44,247.66 934.36,248.75 C933.83,255.77 933.52,258.89 931.20,260.28 C930.85,260.11 930.28,260.00 929.56,260.00 C928.15,260.00 927.00,260.45 927.00,261.00 C927.00,261.10 927.03,261.20 927.09,261.29 C925.60,261.41 923.77,261.43 921.52,261.44 C919.41,261.46 917.45,261.42 915.87,261.35 C915.95,261.24 916.00,261.12 916.00,261.00 C916.00,260.45 915.10,260.00 914.00,260.00 C912.97,260.00 912.11,260.40 912.01,260.90 C912.00,260.89 912.00,260.88 912.00,260.88 ZM 464.00 260.26 C462.62,260.01 461.17,259.28 460.77,258.65 C460.36,258.02 460.02,230.62 460.02,197.77 L 460.00 138.04 L 462.25 137.58 C463.49,137.32 468.41,136.92 473.19,136.67 C475.25,136.57 476.87,136.51 478.14,136.52 C478.05,136.65 478.00,136.81 478.00,137.00 C478.00,137.55 478.67,138.00 479.50,138.00 C480.80,138.00 481.00,141.72 481.00,165.50 C481.00,183.17 481.36,193.00 482.00,193.00 C482.53,193.00 482.89,180.61 483.00,167.53 C483.04,180.21 483.00,195.33 482.91,209.62 C482.76,203.30 482.51,199.00 482.12,199.00 C481.64,199.00 481.21,212.35 481.16,228.66 C481.12,244.97 480.72,258.68 480.29,259.11 C479.86,259.54 476.35,260.06 472.50,260.25 L 466.15 260.58 C465.38,260.49 464.66,260.39 464.00,260.26 ZM 750.18 258.72 C750.15,258.68 750.11,258.60 750.08,258.49 C750.67,257.66 751.00,236.60 751.00,198.52 L 751.00 137.93 L 770.50 138.50 L 770.73 198.50 C770.85,229.46 770.96,255.53 770.99,259.09 C766.25,260.42 751.61,260.45 750.18,258.72 ZM 553.00 242.01 C557.77,240.69 563.61,235.67 566.22,230.65 C569.62,224.14 569.41,211.35 565.78,203.96 C562.75,197.79 558.49,194.10 553.57,193.36 C553.93,193.32 554.24,193.25 554.43,193.15 C555.55,192.56 552.30,191.17 549.55,191.07 C548.08,191.02 548.07,191.61 548.95,192.22 C548.77,192.13 548.64,192.04 548.55,191.95 C546.89,190.29 538.79,190.92 534.40,193.05 C532.07,194.18 528.39,197.03 526.22,199.38 C523.96,201.82 522.68,203.88 521.92,207.30 C521.86,207.00 521.55,207.18 520.95,207.74 C520.15,208.48 519.47,211.98 519.25,216.49 C519.01,221.35 519.25,224.00 519.94,224.00 C520.34,224.00 520.66,222.99 520.84,221.30 C520.85,230.52 525.71,237.36 535.18,241.48 C539.03,243.15 547.95,243.42 553.00,242.01 ZM 949.24 217.85 L 949.50 175.64 L 952.41 174.86 C953.97,174.45 958.70,173.98 963.05,173.81 C963.02,173.87 963.00,173.93 963.00,174.00 C963.00,174.55 964.58,175.00 966.50,175.00 L 970.00 175.00 L 970.16 196.75 C970.24,208.71 970.19,227.12 970.04,237.65 C969.89,248.19 970.15,257.41 970.63,258.15 C970.95,258.64 971.26,248.67 971.50,235.43 L 971.50 259.50 L 960.24 259.78 L 948.98 260.07 ZM 956.46 160.94 C945.68,157.80 944.16,143.14 954.06,137.83 C963.37,132.84 974.00,138.82 974.00,149.05 C974.00,153.83 969.68,159.72 965.27,160.94 C960.96,162.14 960.59,162.14 956.46,160.94 ZM 949.00 258.43 C949.00,259.35 949.85,260.00 951.08,260.00 C953.52,260.00 953.18,257.66 950.67,257.18 C949.68,256.99 949.00,257.50 949.00,258.43 ZM 395.00 258.50 C395.00,259.33 395.67,260.00 396.50,260.00 C397.33,260.00 398.00,259.33 398.00,258.50 C398.00,257.67 397.33,257.00 396.50,257.00 C395.67,257.00 395.00,257.67 395.00,258.50 ZM 772.09 258.66 C772.64,255.50 772.98,232.47 772.98,197.37 L 773.00 137.23 L 773.00 197.03 C773.00,229.93 772.75,257.49 772.44,258.30 C772.39,258.42 772.27,258.54 772.09,258.66 ZM 749.83 256.98 C749.29,251.82 749.10,235.01 749.16,200.78 C749.20,226.02 749.43,250.69 749.83,256.98 ZM 442.00 192.50 L 442.00 199.94 C442.00,208.94 441.01,212.75 439.30,210.46 C439.64,210.72 440.03,210.83 440.37,210.71 C441.08,210.48 441.61,206.59 441.78,200.17 L 442.00 192.50 ZM 904.50 150.00 L 914.94 150.00 L 914.97 151.23 C914.68,150.22 912.51,150.00 904.50,150.00 ZM 398.46 177.98 C398.55,183.97 398.85,187.92 399.29,188.98 C398.56,188.01 398.42,185.53 398.46,177.98 ZM 934.50 191.50 L 925.34 191.79 L 916.17 192.07 L 916.00 201.95 L 916.00 192.08 L 925.25 191.79 L 934.50 191.50 ZM 466.80 260.64 L 473.05 260.80 C474.00,260.83 474.88,260.83 475.70,260.82 C472.90,260.96 469.61,260.91 466.80,260.64 ZM 1137.99 191.18 C1138.00,191.24 1138.00,191.30 1138.00,191.35 C1138.00,192.41 1137.03,193.45 1135.11,194.44 C1136.75,193.57 1137.86,192.29 1137.99,191.18 ZM 637.45 231.65 C637.59,231.57 637.70,231.35 637.82,231.00 C638.01,230.40 638.38,229.75 638.75,229.32 C638.29,230.01 637.98,230.72 637.97,231.18 C637.96,231.72 637.78,231.88 637.45,231.65 ZM 933.46 174.45 L 934.50 174.50 L 934.50 175.52 C934.33,174.95 934.10,174.64 933.79,174.54 C933.70,174.51 933.59,174.48 933.46,174.45 ZM 970.50 173.54 L 971.50 173.50 L 971.50 174.16 C971.35,173.92 970.99,173.71 970.50,173.54 ZM 714.86 174.95 C715.92,174.05 718.35,174.00 726.48,174.00 C718.60,174.00 716.05,174.10 714.86,174.95 ZM 591.24 216.89 C591.24,216.92 591.24,216.95 591.24,216.98 C591.24,219.96 591.21,221.97 590.96,223.76 C591.13,221.85 591.24,219.40 591.24,216.89 ZM 892.73 174.00 L 893.08 171.46 L 892.84 174.00 L 892.73 174.00 ZM 708.97 260.33 C708.99,260.25 709.00,260.17 709.00,260.08 C709.00,259.80 709.09,259.29 709.24,258.72 C709.20,259.05 709.16,259.39 709.13,259.75 C709.11,259.97 709.05,260.17 708.97,260.33 ZM 737.97 174.89 C737.99,174.92 738.00,174.95 738.00,174.98 C738.00,175.20 737.78,175.99 737.42,177.11 C737.69,176.13 737.89,175.32 737.97,174.89 ZM 444.89 155.86 C445.09,155.53 445.26,155.15 445.37,154.75 C445.25,155.21 445.15,155.57 444.89,155.86 ZM 521.45 210.11 C521.36,210.83 521.29,211.60 521.22,212.44 C521.28,211.55 521.36,210.75 521.45,210.11 ZM 482.40 137.60 C482.40,137.60 482.40,137.61 482.40,137.61 C482.41,137.64 482.42,137.67 482.43,137.71 C482.42,137.66 482.41,137.63 482.40,137.60 Z" fill="rgba(1,16,53,1)"/>
<path d="M 78.09 217.86 C78.72,215.92 79.67,213.58 80.95,210.69 C92.10,185.64 111.55,165.55 130.97,159.01 C144.38,154.49 155.09,153.72 171.76,157.56 C171.88,157.83 173.40,158.62 176.43,159.94 C180.25,161.61 183.81,163.41 184.34,163.94 C185.74,165.34 183.64,167.51 178.41,170.04 C173.22,172.56 157.97,183.76 153.14,188.62 C151.29,190.48 149.15,192.00 148.39,192.00 C147.62,192.00 147.00,192.90 147.00,194.00 C147.00,195.39 146.32,196.01 144.75,196.04 C143.51,196.06 141.07,196.85 139.31,197.79 C137.27,198.89 136.59,199.28 139.79,199.43 C129.30,200.41 120.82,203.87 110.15,211.01 C105.39,214.20 98.40,219.55 94.60,222.90 C93.21,224.13 91.94,225.17 90.76,226.03 C91.38,225.54 92.01,224.98 92.65,224.37 C95.32,221.82 96.60,220.35 95.50,221.12 C93.10,222.78 89.48,224.87 85.79,226.74 C81.39,228.96 79.00,227.03 78.98,221.21 C78.97,217.96 78.73,217.00 78.09,217.86 ZM 217.50 145.50 C208.90,142.46 201.94,130.35 203.58,121.30 C205.12,112.83 211.18,105.42 218.56,102.98 C223.84,101.24 234.03,102.24 238.37,104.92 C249.00,111.49 252.09,127.41 244.65,137.30 C238.45,145.53 227.20,148.93 217.50,145.50 ZM 278.45 94.59 C269.21,90.57 266.12,77.78 272.40,69.55 C282.72,56.02 306.02,65.02 303.54,81.58 C302.75,86.83 298.25,92.58 293.30,94.65 C289.23,96.35 282.42,96.32 278.45,94.59 ZM 243.54 219.06 C241.16,219.42 238.40,219.60 234.50,219.76 C228.97,219.99 224.81,219.97 220.77,219.46 C224.10,219.64 228.66,219.71 233.00,219.62 C237.87,219.51 240.99,219.39 243.54,219.06 ZM 235.25 172.34 C247.87,171.20 259.02,165.06 273.93,153.00 C258.81,165.23 248.04,171.36 235.25,172.34 ZM 205.80 215.62 C203.99,214.99 202.04,214.28 199.90,213.47 C175.14,204.18 166.26,201.10 158.64,199.93 C166.03,200.80 173.80,203.68 199.98,213.50 C201.92,214.23 203.90,214.95 205.80,215.62 ZM 185.03 161.17 C189.44,162.51 194.23,164.09 199.50,165.90 C200.46,166.24 201.41,166.56 202.35,166.87 C200.15,166.18 197.88,165.44 195.50,164.63 C191.54,163.30 188.04,162.14 185.03,161.17 ZM 79.00 227.00 C80.63,228.63 82.48,229.32 84.54,229.08 C82.43,229.40 80.68,228.68 79.00,227.00 C77.92,225.92 77.31,224.77 77.18,223.22 C77.44,224.68 78.06,226.06 79.00,227.00 Z" fill="rgba(2,193,254,1)"/>
<path d="M 771.00 259.50 C770.98,258.95 770.86,231.50 770.73,198.50 L 770.50 138.50 L 751.00 137.93 L 751.00 198.52 C751.00,237.74 750.66,258.90 750.02,258.51 C748.96,257.86 748.83,139.85 749.89,138.23 C750.63,137.11 767.60,135.82 770.75,136.65 L 773.00 137.23 L 772.98 197.37 C772.98,234.46 772.60,258.07 772.00,259.00 C771.47,259.83 771.02,260.05 771.00,259.50 ZM 442.18 155.45 C442.11,155.75 442.13,156.02 442.22,156.25 C441.81,155.42 442.02,154.10 443.00,153.50 C443.55,153.16 444.00,149.53 444.00,145.43 L 444.00 137.97 L 410.25 138.24 L 376.50 138.50 L 376.50 197.10 C376.50,167.64 376.23,142.96 375.88,137.94 C376.07,137.05 376.30,136.71 376.58,136.61 C377.22,136.36 385.57,136.15 397.00,136.06 C396.42,136.19 396.00,136.57 396.00,137.00 C396.00,137.55 396.67,138.00 397.50,138.00 C398.33,138.00 399.00,137.55 399.00,137.00 C399.00,136.56 398.56,136.18 397.96,136.05 C401.98,136.02 406.35,136.00 410.88,136.00 C435.00,136.00 443.92,136.32 444.80,137.20 C446.06,138.46 446.45,150.71 445.37,154.75 C445.25,155.18 445.07,155.59 444.85,155.93 C444.87,155.73 444.86,155.50 444.81,155.25 C444.40,153.14 442.63,153.28 442.18,155.45 ZM 970.63 258.15 C970.15,257.41 969.89,248.19 970.04,237.65 C970.19,227.12 970.24,208.71 970.16,196.75 L 970.00 175.00 L 966.50 175.00 C964.58,175.00 963.00,174.55 963.00,174.00 C963.00,172.53 970.97,172.76 971.54,174.25 C971.91,175.22 971.97,190.36 971.84,207.53 C971.78,205.28 971.70,203.99 971.61,204.08 C970.94,204.79 969.93,238.07 970.54,239.07 C970.80,239.49 971.16,239.85 971.41,239.96 C971.19,250.87 970.91,258.58 970.63,258.15 ZM 397.72 250.54 C396.74,241.07 396.97,211.00 398.03,211.00 C398.63,211.00 399.00,219.56 399.00,233.50 C399.00,245.88 398.84,256.00 398.64,256.00 C398.44,256.00 398.03,253.54 397.72,250.54 ZM 438.67 209.57 C438.35,208.74 438.52,207.80 439.04,207.47 C440.31,206.69 440.25,196.67 439.15,193.82 C439.70,194.25 440.00,193.63 440.00,192.00 C440.00,190.57 439.43,190.08 437.51,190.01 C437.68,190.00 437.86,190.00 438.03,190.00 L 442.07 190.00 L 441.78 200.17 C441.61,206.59 441.08,210.48 440.37,210.71 C439.75,210.92 438.99,210.40 438.67,209.57 ZM 397.47 189.29 C397.13,187.02 397.00,182.70 397.00,175.42 C397.00,166.94 397.37,160.00 397.82,160.00 C398.26,160.00 398.57,166.52 398.49,174.49 C398.36,187.70 398.51,189.03 400.18,189.56 C401.00,189.82 401.70,190.32 401.92,190.77 C401.42,189.79 398.57,188.84 397.47,189.29 ZM 804.10 298.09 C804.00,298.02 803.90,297.94 803.81,297.86 C803.91,297.85 804.03,297.82 804.15,297.78 C805.71,297.26 805.98,295.03 804.50,294.95 C804.00,294.92 803.44,295.53 803.21,296.34 C803.22,296.03 803.29,295.70 803.43,295.35 C804.11,293.60 804.21,293.59 805.43,295.25 C806.50,296.70 808.32,297.00 815.92,297.00 C821.80,297.00 824.89,297.36 824.50,298.00 C823.74,299.23 806.03,299.31 804.10,298.09 ZM 519.25 216.49 C519.47,211.98 520.15,208.48 520.95,207.74 C522.03,206.72 522.16,206.95 521.65,209.00 C521.31,210.38 521.02,214.31 521.01,217.75 C521.01,221.48 520.57,224.00 519.94,224.00 C519.25,224.00 519.01,221.35 519.25,216.49 ZM 1005.00 216.50 C1005.00,212.83 1005.44,210.00 1006.00,210.00 C1006.56,210.00 1007.00,212.83 1007.00,216.50 C1007.00,220.17 1006.56,223.00 1006.00,223.00 C1005.44,223.00 1005.00,220.17 1005.00,216.50 ZM 589.46 217.49 C589.46,210.83 589.83,206.43 590.35,206.95 C590.72,207.32 591.04,209.99 591.17,213.42 C591.14,213.22 591.11,213.03 591.07,212.85 C590.31,208.95 590.22,209.34 590.21,216.50 C590.20,223.13 590.35,223.88 591.06,220.85 C591.10,220.68 591.14,220.51 591.17,220.33 C591.04,223.82 590.72,226.68 590.35,227.34 C589.79,228.34 589.46,224.68 589.46,217.49 ZM 1101.25 224.83 C1098.91,224.31 1097.00,223.41 1097.00,222.82 C1097.00,222.20 1097.92,222.04 1099.25,222.42 C1100.49,222.78 1102.96,223.34 1104.75,223.67 C1106.54,224.00 1108.00,224.65 1108.00,225.13 C1108.00,226.16 1106.95,226.11 1101.25,224.83 ZM 893.74 234.25 C894.00,229.99 894.35,226.35 894.53,226.16 C894.70,225.98 894.99,229.47 895.17,233.91 C895.39,239.41 895.14,242.00 894.38,242.00 C893.61,242.00 893.41,239.58 893.74,234.25 ZM 914.00 210.55 L 914.00 191.09 L 917.25 190.54 C919.04,190.24 923.20,189.88 926.50,189.75 L 932.50 189.50 L 923.81 190.02 C914.81,190.56 913.30,191.05 914.52,193.04 C915.02,193.85 915.45,193.88 915.91,193.15 C915.93,193.12 915.96,193.09 916.00,193.05 L 916.00 211.04 C916.00,212.64 915.99,214.16 915.98,215.58 C915.98,214.83 915.99,214.05 915.98,213.25 C915.97,202.07 915.65,197.00 915.00,198.00 C914.47,198.82 914.03,206.34 914.02,214.71 C914.01,213.39 914.00,212.01 914.00,210.55 ZM 1105.00 207.41 C1102.62,205.96 1102.77,205.92 1108.00,206.51 C1114.68,207.26 1117.15,209.02 1111.45,208.96 C1109.28,208.95 1106.38,208.25 1105.00,207.41 ZM 1102.46 244.99 C1099.53,243.96 1102.10,243.30 1107.25,243.77 C1109.86,244.01 1112.00,244.62 1112.00,245.14 C1112.00,246.15 1105.47,246.04 1102.46,244.99 ZM 894.96 172.22 C894.91,170.67 894.72,170.78 893.61,172.25 C893.42,172.50 893.20,172.72 892.94,172.91 L 893.42 167.75 C894.52,155.86 894.70,155.54 894.85,165.25 L 894.96 172.22 ZM 401.00 210.00 C399.94,209.31 401.19,209.03 405.31,209.02 C408.93,209.01 410.89,209.38 410.50,210.00 C409.71,211.28 402.97,211.28 401.00,210.00 ZM 551.50 193.23 C548.64,192.62 547.16,190.98 549.55,191.07 C552.30,191.17 555.55,192.56 554.43,193.15 C553.92,193.42 552.60,193.46 551.50,193.23 ZM 894.00 245.00 C894.00,242.62 895.54,242.35 896.39,244.58 C897.25,246.82 897.18,247.00 895.50,247.00 C894.67,247.00 894.00,246.11 894.00,245.00 ZM 1028.50 192.00 C1026.90,191.31 1027.24,191.13 1030.25,191.07 C1032.31,191.03 1034.00,191.45 1034.00,192.00 C1034.00,193.19 1031.28,193.19 1028.50,192.00 ZM 1098.00 173.00 C1098.00,172.45 1098.87,172.00 1099.94,172.00 C1101.01,172.00 1102.16,172.45 1102.50,173.00 C1102.85,173.57 1102.01,174.00 1100.56,174.00 C1099.15,174.00 1098.00,173.55 1098.00,173.00 ZM 927.00 261.00 C927.00,260.45 928.15,260.00 929.56,260.00 C931.01,260.00 931.85,260.43 931.50,261.00 C931.16,261.55 930.01,262.00 928.94,262.00 C927.87,262.00 927.00,261.55 927.00,261.00 ZM 534.00 173.00 C534.00,171.74 536.04,171.74 538.00,173.00 C539.17,173.76 538.89,173.97 536.75,173.98 C535.24,173.99 534.00,173.55 534.00,173.00 ZM 912.00 261.00 C912.00,260.45 912.90,260.00 914.00,260.00 C915.10,260.00 916.00,260.45 916.00,261.00 C916.00,261.55 915.10,262.00 914.00,262.00 C912.90,262.00 912.00,261.55 912.00,261.00 ZM 1112.35 172.87 C1113.67,172.10 1114.51,172.11 1115.30,172.90 C1116.10,173.70 1115.60,173.99 1113.45,173.97 C1110.86,173.94 1110.73,173.81 1112.35,172.87 ZM 661.00 216.62 C661.00,215.79 661.45,214.84 662.00,214.50 C662.55,214.16 663.00,214.56 663.00,215.38 C663.00,216.21 662.55,217.16 662.00,217.50 C661.45,217.84 661.00,217.44 661.00,216.62 ZM 551.80 172.80 C552.73,171.87 553.27,171.87 554.20,172.80 C555.13,173.73 554.87,174.00 553.00,174.00 C551.13,174.00 550.87,173.73 551.80,172.80 ZM 375.45 142.01 C375.19,151.45 375.00,173.22 375.00,198.42 C375.00,164.24 375.06,148.87 375.45,142.01 ZM 889.62 175.00 C894.34,175.00 894.95,174.82 894.97,172.99 L 895.00 175.00 L 889.62 175.00 ZM 438.41 192.88 C437.69,192.37 436.62,192.00 435.80,192.00 C434.81,192.00 434.00,191.55 434.00,191.00 C434.00,191.55 434.87,192.00 435.94,192.00 C436.93,192.00 437.98,192.38 438.41,192.88 ZM 398.25 191.34 C398.12,191.29 398.00,191.16 397.90,190.95 C397.94,190.98 397.98,191.01 398.03,191.04 C398.55,191.37 399.09,191.61 399.59,191.76 C399.17,191.67 398.72,191.53 398.25,191.34 ZM 443.43 157.00 C443.41,157.00 443.40,157.00 443.38,157.00 C443.12,157.00 442.89,156.93 442.71,156.81 C442.90,156.92 443.15,156.99 443.43,157.00 Z" fill="rgba(2,7,21,1)"/>
<path d="M 375.00 198.50 C375.00,164.68 375.34,137.00 375.75,137.00 C376.16,137.00 376.50,164.04 376.50,197.10 C376.50,230.15 376.84,257.40 377.25,257.65 C378.55,258.46 378.06,260.00 376.50,260.00 C375.18,260.00 375.00,252.50 375.00,198.50 ZM 914.52 193.04 C913.30,191.05 914.81,190.56 923.81,190.02 L 932.50 189.50 L 932.80 183.60 C932.98,180.23 932.64,177.24 932.01,176.61 C931.40,176.00 927.56,175.49 923.47,175.47 C919.39,175.46 915.60,175.00 915.07,174.47 C914.12,173.52 930.93,173.58 933.79,174.54 C934.74,174.85 935.00,177.16 934.79,183.23 L 934.50 191.50 L 925.53 191.79 C920.59,191.95 916.27,192.56 915.91,193.15 C915.45,193.88 915.02,193.85 914.52,193.04 ZM 734.54 179.64 C735.13,176.48 734.98,176.25 731.96,175.64 C726.00,174.45 717.23,174.91 715.64,176.50 C713.53,178.61 712.73,178.36 714.00,176.00 C714.97,174.18 716.09,174.00 726.54,174.00 C732.84,174.00 738.00,174.29 738.00,174.63 C738.00,174.98 737.48,177.01 736.84,179.13 C735.42,183.88 733.67,184.27 734.54,179.64 ZM 894.00 152.00 C894.00,150.13 894.67,150.00 904.50,150.00 C913.17,150.00 915.00,150.26 915.00,151.50 C915.00,153.27 913.42,153.49 912.42,151.87 C911.56,150.47 898.21,151.39 896.65,152.95 C895.03,154.57 894.00,154.20 894.00,152.00 ZM 881.16 179.25 L 881.00 174.00 L 886.64 174.00 C890.84,174.00 892.62,173.55 893.61,172.25 C894.84,170.63 894.94,170.67 894.97,172.75 C895.00,174.81 894.54,175.00 889.62,175.00 C883.57,175.00 882.35,175.92 881.74,181.00 C881.42,183.70 881.28,183.30 881.16,179.25 ZM 636.38 234.21 C635.07,233.37 633.55,229.00 634.57,229.00 C634.96,229.00 635.88,229.79 636.61,230.75 C637.50,231.93 637.95,232.07 637.97,231.18 C637.99,230.45 638.75,229.11 639.67,228.19 C641.23,226.63 641.29,226.72 640.60,229.51 C639.71,233.15 637.89,235.18 636.38,234.21 ZM 826.53 231.05 C824.77,227.65 824.66,227.00 825.88,227.00 C826.36,227.00 827.33,228.38 828.02,230.06 L 829.29 233.11 L 830.84 229.90 C831.70,228.14 832.58,227.23 832.79,227.88 C833.27,229.30 830.35,234.00 829.00,234.00 C828.48,234.00 827.36,232.67 826.53,231.05 ZM 1132.00 194.99 C1132.00,194.41 1132.66,193.68 1133.46,193.38 C1134.27,193.07 1135.20,191.96 1135.53,190.91 C1136.32,188.41 1138.00,188.45 1138.00,190.97 C1138.00,192.16 1136.80,193.57 1135.00,194.50 C1133.20,195.43 1132.00,195.63 1132.00,194.99 ZM 694.53 231.39 C692.81,229.67 692.52,228.00 693.93,228.00 C694.45,228.00 695.18,228.98 695.56,230.19 C696.21,232.25 696.36,232.18 698.18,228.94 C699.74,226.16 700.01,225.98 699.57,228.00 C699.27,229.38 699.02,230.79 699.01,231.14 C698.98,232.63 695.94,232.80 694.53,231.39 ZM 438.50 193.00 C438.16,192.45 437.01,192.00 435.94,192.00 C434.87,192.00 434.00,191.55 434.00,191.00 C434.00,190.45 435.35,190.00 437.00,190.00 C439.33,190.00 440.00,190.44 440.00,192.00 C440.00,194.19 439.46,194.55 438.50,193.00 ZM 398.03 191.04 C397.22,190.53 396.85,189.82 397.20,189.46 C398.08,188.59 402.00,189.90 402.00,191.07 C402.00,192.26 399.93,192.24 398.03,191.04 ZM 949.00 258.43 C949.00,257.50 949.68,256.99 950.67,257.18 C953.18,257.66 953.52,260.00 951.08,260.00 C949.85,260.00 949.00,259.35 949.00,258.43 ZM 395.00 258.50 C395.00,257.67 395.67,257.00 396.50,257.00 C397.33,257.00 398.00,257.67 398.00,258.50 C398.00,259.33 397.33,260.00 396.50,260.00 C395.67,260.00 395.00,259.33 395.00,258.50 ZM 442.18 155.45 C442.63,153.28 444.40,153.14 444.81,155.25 C445.02,156.34 444.53,157.00 443.50,157.00 C442.54,157.00 441.99,156.35 442.18,155.45 ZM 803.15 296.56 C803.34,295.64 803.95,294.92 804.50,294.95 C805.98,295.03 805.71,297.26 804.15,297.78 C803.31,298.06 802.94,297.61 803.15,296.56 Z" fill="rgba(3,12,37,1)"/>
<path d="M 185.41 208.06 C162.84,199.71 160.61,199.59 148.81,199.55 C136.26,199.50 136.16,199.48 139.31,197.79 C141.07,196.85 143.51,196.06 144.75,196.04 C146.32,196.01 147.00,195.39 147.00,194.00 C147.00,192.90 147.62,192.00 148.39,192.00 C149.15,192.00 151.29,190.48 153.14,188.62 C157.97,183.76 173.22,172.56 178.41,170.04 C183.64,167.51 185.74,165.34 184.34,163.94 C183.81,163.41 180.25,161.61 176.43,159.94 C165.89,155.34 173.56,157.22 195.50,164.63 C212.23,170.29 224.12,173.04 234.59,172.39 C230.19,173.10 230.11,173.70 229.65,176.02 C229.32,177.66 228.58,179.00 228.01,179.00 C227.44,179.00 224.24,180.91 220.89,183.25 C217.55,185.59 212.94,188.57 210.66,189.89 C208.37,191.20 204.41,193.79 201.87,195.64 C199.32,197.49 196.48,199.00 195.56,199.00 C194.64,199.00 191.87,200.12 189.41,201.50 C186.94,202.88 183.90,204.00 182.63,204.00 C178.23,204.00 179.00,205.39 184.73,207.78 C184.95,207.87 185.18,207.96 185.41,208.06 ZM 79.00 227.00 C76.88,224.88 76.39,220.49 78.00,218.00 C78.70,216.91 78.97,217.80 78.98,221.21 C79.00,227.03 81.39,228.96 85.79,226.74 C89.48,224.87 93.10,222.78 95.50,221.12 C96.60,220.35 95.32,221.82 92.65,224.37 C87.12,229.66 82.54,230.54 79.00,227.00 ZM 241.13 171.50 C245.01,170.67 248.78,169.32 252.66,167.42 C248.24,169.70 244.38,171.08 241.26,171.48 C241.21,171.49 241.17,171.49 241.13,171.50 ZM 216.48 219.04 C215.98,218.93 215.22,218.72 214.26,218.43 C215.19,218.71 215.96,218.91 216.50,219.03 C218.56,219.48 225.22,219.73 231.71,219.64 C225.22,219.73 218.55,219.48 216.48,219.04 Z" fill="rgba(9,157,254,1)"/>
<path d="M 216.50 219.03 C212.21,218.11 194.19,211.72 184.73,207.78 C179.00,205.39 178.23,204.00 182.63,204.00 C183.90,204.00 186.94,202.88 189.41,201.50 C191.87,200.12 194.64,199.00 195.56,199.00 C196.48,199.00 199.32,197.49 201.87,195.64 C204.41,193.79 208.37,191.20 210.66,189.89 C212.94,188.57 217.55,185.59 220.89,183.25 C224.24,180.91 227.44,179.00 228.01,179.00 C228.58,179.00 229.32,177.66 229.65,176.02 C230.28,172.86 230.20,172.89 241.26,171.48 C248.73,170.53 260.41,163.92 273.93,152.99 C279.27,148.68 283.68,145.27 287.45,142.61 C287.08,143.01 286.91,143.71 286.68,144.85 C286.34,146.57 285.27,148.10 284.16,148.45 C281.45,149.31 273.25,157.85 272.58,160.53 C272.27,161.76 270.33,165.46 268.26,168.76 C255.46,189.17 246.61,201.00 244.14,201.00 C243.35,201.00 239.90,203.89 236.47,207.42 C232.49,211.52 228.37,214.64 225.11,216.05 C222.30,217.26 220.00,218.69 220.00,219.24 C220.00,219.31 220.05,219.37 220.15,219.42 C218.50,219.32 217.22,219.19 216.50,219.03 ZM 287.86 142.32 C293.28,138.54 297.38,136.31 301.12,135.13 C299.64,135.74 299.13,136.73 298.83,138.50 C298.31,141.66 295.65,143.03 291.24,142.42 C289.46,142.17 288.47,142.06 287.86,142.32 ZM 302.80 134.66 C304.75,134.19 306.64,134.00 308.60,134.00 C309.44,134.00 310.18,134.01 310.85,134.08 C309.76,134.01 308.46,134.09 306.89,134.20 C305.18,134.32 303.85,134.46 302.80,134.66 ZM 253.50 216.14 C249.93,217.57 247.66,218.37 244.94,218.85 C247.71,218.34 250.01,217.53 253.50,216.14 Z" fill="rgba(47,105,254,1)"/>
<path d="M 472.50 260.25 C476.35,260.06 479.86,259.54 480.29,259.11 C480.72,258.68 481.12,244.97 481.16,228.66 C481.21,212.35 481.64,199.00 482.12,199.00 C483.55,199.00 483.24,258.36 481.80,259.80 C481.04,260.56 477.83,260.93 473.05,260.80 L 465.50 260.61 ZM 481.00 165.50 C481.00,141.72 480.80,138.00 479.50,138.00 C478.67,138.00 478.00,137.55 478.00,137.00 C478.00,135.37 481.73,135.86 482.39,137.58 C483.46,140.37 483.09,193.00 482.00,193.00 C481.36,193.00 481.00,183.17 481.00,165.50 ZM 914.02 214.75 C914.02,206.36 914.47,198.82 915.00,198.00 C915.65,197.00 915.97,202.07 915.98,213.25 C915.99,223.76 915.63,230.00 915.00,230.00 C914.38,230.00 914.01,224.26 914.02,214.75 ZM 970.54 239.07 C969.93,238.07 970.94,204.79 971.61,204.08 C971.82,203.85 972.00,211.84 972.00,221.83 C972.00,231.82 971.80,240.00 971.56,240.00 C971.32,240.00 970.86,239.58 970.54,239.07 ZM 933.04 244.07 C931.59,241.36 931.74,240.00 933.50,240.00 C935.00,246.48 934.48,246.77 933.04,244.07 ZM 590.21 216.50 C590.22,209.34 590.31,208.95 591.07,212.85 C591.55,215.27 591.55,218.81 591.06,220.85 C590.35,223.88 590.20,223.13 590.21,216.50 ZM 706.58 260.13 C706.29,259.66 707.01,258.42 708.19,257.38 C710.24,255.59 710.31,255.59 709.67,257.33 C709.30,258.34 709.00,259.58 709.00,260.08 C709.00,261.25 707.29,261.28 706.58,260.13 ZM 396.00 137.00 C396.00,136.45 396.67,136.00 397.50,136.00 C398.33,136.00 399.00,136.45 399.00,137.00 C399.00,137.55 398.33,138.00 397.50,138.00 C396.67,138.00 396.00,137.55 396.00,137.00 Z" fill="rgba(1,4,12,1)"/>
<path d="M 220.00 219.24 C220.00,218.69 222.30,217.26 225.11,216.05 C228.37,214.64 232.49,211.52 236.47,207.42 C239.90,203.89 243.35,201.00 244.14,201.00 C246.61,201.00 255.46,189.17 268.26,168.76 C270.33,165.46 272.27,161.76 272.58,160.53 C273.25,157.85 281.45,149.31 284.16,148.45 C285.27,148.10 286.34,146.57 286.68,144.85 C287.25,142.01 287.47,141.89 291.24,142.42 C295.65,143.03 298.31,141.66 298.83,138.50 C299.36,135.31 300.60,134.66 306.89,134.20 C316.05,133.54 316.18,133.93 315.81,160.00 C315.50,180.84 315.46,181.21 313.16,183.08 C311.87,184.12 308.94,185.45 306.66,186.02 C297.55,188.33 292.94,190.97 270.00,207.00 C265.33,210.26 257.90,214.38 253.50,216.14 C246.33,219.01 244.18,219.38 232.75,219.79 C224.66,220.07 220.00,219.87 220.00,219.24 ZM 219.96 244.09 C213.36,243.09 206.01,241.07 195.16,237.57 C168.25,228.87 165.41,228.38 160.52,231.58 C159.06,232.54 157.06,232.98 155.72,232.64 C153.11,231.99 145.31,234.10 141.77,236.42 C140.46,237.27 135.72,238.88 131.22,240.00 C126.73,241.12 121.58,242.89 119.77,243.92 C115.21,246.55 110.25,247.45 108.46,245.97 C106.66,244.47 104.59,245.73 97.48,252.63 C91.36,258.57 83.95,269.70 78.82,280.64 C90.39,255.96 107.68,238.70 127.90,231.64 C135.90,228.85 137.52,228.64 151.00,228.61 C167.18,228.57 167.73,228.68 195.16,237.56 C206.00,241.07 213.36,243.09 219.96,244.09 Z" fill="rgba(71,80,253,1)"/>
<path d="M 77.76 301.49 C72.56,298.56 72.82,293.44 78.82,280.64 C83.95,269.70 91.36,258.57 97.48,252.63 C104.59,245.73 106.66,244.47 108.46,245.97 C110.25,247.45 115.21,246.55 119.77,243.92 C121.58,242.89 126.73,241.12 131.22,240.00 C135.72,238.88 140.46,237.27 141.77,236.42 C145.31,234.10 153.11,231.99 155.72,232.64 C157.06,232.98 159.06,232.54 160.52,231.58 C165.41,228.38 168.25,228.87 195.16,237.57 C206.18,241.13 213.59,243.15 220.27,244.13 C215.50,243.83 212.62,243.15 207.72,241.66 L 198.94 238.99 L 195.10 240.95 C192.99,242.02 189.93,244.03 188.31,245.40 C186.68,246.77 182.36,249.01 178.71,250.39 C175.06,251.76 168.49,255.18 164.11,257.99 C159.73,260.80 153.98,263.87 151.33,264.82 C146.94,266.40 137.00,271.73 137.00,272.51 C137.00,274.88 138.71,276.00 142.36,276.03 C147.16,276.08 152.70,276.88 160.80,278.92 C155.63,277.82 151.65,277.48 146.45,277.26 C136.22,276.85 133.21,277.09 126.64,278.90 C114.84,282.14 109.52,285.27 90.32,300.35 C87.12,302.86 81.16,303.40 77.76,301.49 ZM 125.33 276.54 C125.33,277.34 125.88,278.00 126.54,278.00 C128.28,278.00 130.32,275.31 129.14,274.59 C127.69,273.69 125.33,274.90 125.33,276.54 ZM 257.94 298.00 C255.26,298.35 252.16,298.55 248.00,298.73 C241.01,299.03 235.25,298.96 229.62,298.36 C234.12,298.59 240.12,298.68 245.50,298.56 C251.24,298.44 254.96,298.31 257.94,298.00 ZM 241.49 244.30 C246.15,243.72 250.56,242.68 254.89,241.10 C254.28,241.34 253.66,241.59 253.03,241.85 C248.90,243.48 246.83,244.09 241.49,244.30 ZM 268.87 233.93 C272.33,231.65 275.84,228.98 279.49,225.87 C275.67,229.12 272.30,231.71 268.87,233.93 Z" fill="rgba(106,49,254,1)"/>
<path d="M 203.39 292.15 C202.25,291.78 201.12,291.41 200.00,291.03 C166.01,279.63 152.53,276.12 142.36,276.03 C138.71,276.00 137.00,274.88 137.00,272.51 C137.00,271.73 146.94,266.40 151.33,264.82 C153.98,263.87 159.73,260.80 164.11,257.99 C168.49,255.18 175.06,251.76 178.71,250.39 C182.36,249.01 186.68,246.77 188.31,245.40 C189.93,244.03 192.99,242.02 195.10,240.95 L 198.94 238.99 L 207.72 241.66 C215.51,244.03 218.19,244.34 231.50,244.38 C245.36,244.43 247.00,244.24 253.03,241.85 C263.88,237.54 270.41,233.60 279.49,225.87 C297.70,210.37 307.63,205.56 313.50,209.41 C315.97,211.03 316.00,211.22 316.00,224.96 C316.00,228.68 315.92,232.01 315.74,235.05 C316.12,225.45 315.19,214.87 313.33,212.81 C311.11,210.36 309.56,210.53 306.53,213.56 C304.70,215.39 303.37,215.93 301.89,215.46 C299.22,214.62 291.24,217.59 288.00,220.64 C282.68,225.64 265.98,237.12 260.04,239.87 C258.09,240.77 255.89,242.07 255.16,242.77 C252.69,245.10 248.52,246.80 242.55,247.91 C239.29,248.51 236.59,249.00 236.54,249.00 C236.49,249.00 235.61,250.57 234.57,252.50 C233.11,255.20 232.05,256.00 229.92,256.00 C228.40,256.00 225.88,257.01 224.32,258.25 C220.52,261.27 217.34,263.00 215.56,263.00 C214.76,263.00 212.84,264.69 211.30,266.75 C207.77,271.48 206.00,273.36 206.00,272.38 C206.00,271.96 205.39,272.45 204.65,273.46 C203.91,274.48 202.87,275.04 202.34,274.71 C201.81,274.38 200.05,275.01 198.44,276.10 C196.82,277.19 194.03,278.72 192.24,279.50 C185.07,282.60 187.50,286.11 200.14,290.94 C201.27,291.36 202.35,291.77 203.39,292.15 ZM 125.33 276.54 C125.33,274.90 127.69,273.69 129.14,274.59 C130.32,275.31 128.28,278.00 126.54,278.00 C125.88,278.00 125.33,277.34 125.33,276.54 ZM 307.41 264.68 C299.57,278.66 286.07,289.49 269.17,295.28 C286.06,289.50 299.37,278.68 307.41,264.68 ZM 224.00 297.89 C223.58,297.83 223.06,297.73 222.45,297.60 C223.14,297.73 223.84,297.84 224.54,297.95 C224.78,297.99 225.06,298.03 225.38,298.06 C224.85,298.01 224.39,297.95 224.00,297.89 Z" fill="rgba(133,20,254,1)"/>
<path d="M 224.54 297.95 C217.15,296.80 210.43,294.86 200.14,290.94 C187.50,286.11 185.07,282.60 192.24,279.50 C194.03,278.72 196.82,277.19 198.44,276.10 C200.05,275.01 201.81,274.38 202.34,274.71 C202.87,275.04 203.91,274.48 204.65,273.46 C205.39,272.45 206.00,271.96 206.00,272.38 C206.00,273.36 207.77,271.48 211.30,266.75 C212.84,264.69 214.76,263.00 215.56,263.00 C217.34,263.00 220.52,261.27 224.32,258.25 C225.88,257.01 228.40,256.00 229.92,256.00 C232.05,256.00 233.11,255.20 234.57,252.50 C235.61,250.57 236.49,249.00 236.54,249.00 C236.59,249.00 239.29,248.51 242.55,247.91 C248.52,246.80 252.69,245.10 255.16,242.77 C255.89,242.07 258.09,240.77 260.04,239.87 C265.98,237.12 282.68,225.64 288.00,220.64 C291.24,217.59 299.22,214.62 301.89,215.46 C303.37,215.93 304.70,215.39 306.53,213.56 C309.56,210.53 311.11,210.36 313.33,212.81 C315.93,215.69 316.72,235.28 314.63,245.50 C309.90,268.73 293.15,287.07 269.17,295.28 C261.34,297.95 259.04,298.27 245.50,298.56 C237.25,298.74 227.82,298.46 224.54,297.95 Z" fill="rgba(153,4,254,1)"/>
</g>
</svg>
